# 
# Wavefront OBJ file
# Converted by the DEEP Exploration Deep Exploration 5.7 5.7.0.4228 Release
# Right Hemisphere, LTD
# http://www.righthemisphere.com/
# 
mtllib floor_just_a_plane_triangulated.mtl
# object pCube1
g pCube1
v -58.16294 -56.13005 -0.00000
v 57.94298 -56.13005 -0.00000
v -58.16294 -56.13005 4.29405
v 57.94298 -56.13005 4.29405
v -58.16294 57.11909 4.29405
v 57.94298 57.11909 4.29405
v -58.16294 57.11909 0.00000
v 57.94298 57.11909 0.00000
# 8 verticies
vt 0.37500 0.00000
vt 0.62500 0.00000
vt 0.37500 0.25000
vt 0.62500 0.25000
vt 0.37500 0.50000
vt 0.62500 0.50000
vt 0.37500 0.75000
vt 0.62500 0.75000
vt 0.37500 1.00000
vt 0.62500 1.00000
vt 0.87500 0.00000
vt 0.87500 0.25000
vt 0.12500 0.00000
vt 0.12500 0.25000
# 14 texture verticies
vn 0.00000 -1.00000 -0.00000
vn 0.00000 -0.00000 1.00000
vn 0.00000 1.00000 0.00000
vn 0.00000 0.00000 -1.00000
vn 1.00000 0.00000 0.00000
vn -1.00000 -0.00000 0.00000
# 6 normals
usemtl lambert1
f  1/1/1 2/2/1 3/3/1
f  3/3/1 2/2/1 4/4/1
f  3/3/2 4/4/2 5/5/2
f  5/5/2 4/4/2 6/6/2
f  5/5/3 6/6/3 7/7/3
f  7/7/3 6/6/3 8/8/3
f  7/7/4 8/8/4 1/9/4
f  1/9/4 8/8/4 2/10/4
f  2/2/5 8/11/5 4/4/5
f  4/4/5 8/11/5 6/12/5
f  7/13/6 1/1/6 5/14/6
f  5/14/6 1/1/6 3/3/6
