# 
# Wavefront OBJ file
# Converted by the DEEP Exploration Deep Exploration 5.7 5.7.0.4228 Release
# Right Hemisphere, LTD
# http://www.righthemisphere.com/
# 
mtllib board.mtl
# object polySurface17
g polySurface17
v -9.69868 -1.33917 -0.00000
v 9.13473 -1.33917 -0.00000
v -9.69868 -1.33917 2.98792
v 9.13473 -1.33917 2.98792
v -9.69868 1.45153 2.98792
v 9.13473 1.45153 2.98792
v -9.69868 1.45153 0.00000
v 9.13473 1.45153 0.00000
v -12.47225 -0.68176 2.86070
v 12.22863 -0.68176 2.86070
v -12.47225 -0.68176 14.08762
v 12.22863 -0.68176 14.08762
v -12.47225 0.69562 14.08762
v 12.22863 0.69562 14.08762
v -12.47225 0.69562 2.86070
v 12.22863 0.69562 2.86070
v -1.41050 -0.85013 7.32459
v 1.62689 -0.85013 7.32459
v -1.41050 -0.85013 11.69517
v 1.62689 -0.85013 11.69517
v -1.41050 -0.67151 11.69517
v 1.62689 -0.67151 11.69517
v -1.41050 -0.67151 7.32459
v 1.62689 -0.67151 7.32459
v 2.77018 -0.85013 7.32459
v 5.80757 -0.85013 7.32459
v 2.77018 -0.85013 11.69517
v 5.80757 -0.85013 11.69517
v 2.77018 -0.67151 11.69517
v 5.80757 -0.67151 11.69517
v 2.77018 -0.67151 7.32459
v 5.80757 -0.67151 7.32459
v -5.24139 -0.85013 7.32459
v -2.20400 -0.85013 7.32459
v -5.24139 -0.85013 11.69517
v -2.20400 -0.85013 11.69517
v -5.24139 -0.67151 11.69517
v -2.20400 -0.67151 11.69517
v -5.24139 -0.67151 7.32459
v -2.20400 -0.67151 7.32459
v -9.30923 -0.85013 7.32459
v -6.27183 -0.85013 7.32459
v -9.30923 -0.85013 11.69517
v -6.27183 -0.85013 11.69517
v -9.30923 -0.67151 11.69517
v -6.27183 -0.67151 11.69517
v -9.30923 -0.67151 7.32459
v -6.27183 -0.67151 7.32459
v -7.29522 -0.85013 3.96740
v -4.25782 -0.85013 3.96740
v -7.29522 -0.85013 6.89734
v -4.25782 -0.85013 6.89734
v -7.29522 -0.67151 6.89734
v -4.25782 -0.67151 6.89734
v -7.29522 -0.67151 3.96740
v -4.25782 -0.67151 3.96740
v -2.69195 -0.85013 3.96740
v 0.34545 -0.85013 3.96740
v -2.69195 -0.85013 6.89734
v 0.34545 -0.85013 6.89734
v -2.69195 -0.67151 6.89734
v 0.34545 -0.67151 6.89734
v -2.69195 -0.67151 3.96740
v 0.34545 -0.67151 3.96740
v 1.83452 -0.85013 3.96740
v 4.87191 -0.85013 3.96740
v 1.83452 -0.85013 6.89734
v 4.87191 -0.85013 6.89734
v 1.83452 -0.67151 6.89734
v 4.87191 -0.67151 6.89734
v 1.83452 -0.67151 3.96740
v 4.87191 -0.67151 3.96740
v 7.06715 -0.85013 9.80889
v 10.10454 -0.85013 9.80889
v 7.06715 -0.85013 11.70701
v 10.10454 -0.85013 11.70701
v 7.06715 -0.67151 11.70701
v 10.10454 -0.67151 11.70701
v 7.06715 -0.67151 9.80889
v 10.10454 -0.67151 9.80889
v 7.06715 -0.85013 7.30314
v 10.10454 -0.85013 7.30314
v 7.06715 -0.85013 9.20127
v 10.10454 -0.85013 9.20127
v 7.06715 -0.67151 9.20127
v 10.10454 -0.67151 9.20127
v 7.06715 -0.67151 7.30314
v 10.10454 -0.67151 7.30314
v 7.06715 -0.85013 4.59024
v 10.10454 -0.85013 4.59024
v 7.06715 -0.85013 6.48836
v 10.10454 -0.85013 6.48836
v 7.06715 -0.67151 6.48836
v 10.10454 -0.67151 6.48836
v 7.06715 -0.67151 4.59024
v 10.10454 -0.67151 4.59024
# 96 verticies
vt 0.56036 0.06537
vt 0.93393 0.10894
vt 0.90125 0.60704
vt 0.52768 0.56346
vt 0.86857 1.10514
vt 0.49499 1.06156
vt 0.83588 1.60324
vt 0.46231 1.55966
vt 0.80320 2.10133
vt 0.42963 2.05776
vt 1.30751 0.15252
vt 1.27482 0.65062
vt 0.18679 0.02179
vt 0.15410 0.51989
vt -3.75000 0.00000
vt -6.25000 0.00000
vt -6.25000 -2.50000
vt -3.75000 -2.50000
vt -6.25000 -5.00000
vt -3.75000 -5.00000
vt -6.25000 -7.50000
vt -3.75000 -7.50000
vt -6.25000 -10.00000
vt -3.75000 -10.00000
vt -8.75000 0.00000
vt -8.75000 -2.50000
vt -1.25000 0.00000
vt -1.25000 -2.50000
vt -5.62500 0.00000
vt -9.37500 0.00000
vt -9.37500 -1.00000
vt -5.62500 -1.00000
vt -9.37500 -2.00000
vt -5.62500 -2.00000
vt -9.37500 -3.00000
vt -5.62500 -3.00000
vt -9.37500 -4.00000
vt -5.62500 -4.00000
vt -13.12500 0.00000
vt -13.12500 -1.00000
vt -1.87500 0.00000
vt -1.87500 -1.00000
# 42 texture verticies
vn 0.00000 -1.00000 -0.00000
vn 0.00000 -0.00000 1.00000
vn 0.00000 1.00000 0.00000
vn 0.00000 0.00000 -1.00000
vn 1.00000 0.00000 0.00000
vn -1.00000 -0.00000 0.00000
# 6 normals
usemtl lambert1
f  17/1/1 18/2/1 20/3/1 19/4/1
f  19/4/2 20/3/2 22/5/2 21/6/2
f  21/6/3 22/5/3 24/7/3 23/8/3
f  23/8/4 24/7/4 18/9/4 17/10/4
f  18/2/5 24/11/5 22/12/5 20/3/5
f  23/13/6 17/1/6 19/4/6 21/14/6
f  25/1/1 26/2/1 28/3/1 27/4/1
f  27/4/2 28/3/2 30/5/2 29/6/2
f  29/6/3 30/5/3 32/7/3 31/8/3
f  31/8/4 32/7/4 26/9/4 25/10/4
f  26/2/5 32/11/5 30/12/5 28/3/5
f  31/13/6 25/1/6 27/4/6 29/14/6
f  33/1/1 34/2/1 36/3/1 35/4/1
f  35/4/2 36/3/2 38/5/2 37/6/2
f  37/6/3 38/5/3 40/7/3 39/8/3
f  39/8/4 40/7/4 34/9/4 33/10/4
f  34/2/5 40/11/5 38/12/5 36/3/5
f  39/13/6 33/1/6 35/4/6 37/14/6
f  41/1/1 42/2/1 44/3/1 43/4/1
f  43/4/2 44/3/2 46/5/2 45/6/2
f  45/6/3 46/5/3 48/7/3 47/8/3
f  47/8/4 48/7/4 42/9/4 41/10/4
f  42/2/5 48/11/5 46/12/5 44/3/5
f  47/13/6 41/1/6 43/4/6 45/14/6
f  49/1/1 50/2/1 52/3/1 51/4/1
f  51/4/2 52/3/2 54/5/2 53/6/2
f  53/6/3 54/5/3 56/7/3 55/8/3
f  55/8/4 56/7/4 50/9/4 49/10/4
f  50/2/5 56/11/5 54/12/5 52/3/5
f  55/13/6 49/1/6 51/4/6 53/14/6
f  57/1/1 58/2/1 60/3/1 59/4/1
f  59/4/2 60/3/2 62/5/2 61/6/2
f  61/6/3 62/5/3 64/7/3 63/8/3
f  63/8/4 64/7/4 58/9/4 57/10/4
f  58/2/5 64/11/5 62/12/5 60/3/5
f  63/13/6 57/1/6 59/4/6 61/14/6
f  65/1/1 66/2/1 68/3/1 67/4/1
f  67/4/2 68/3/2 70/5/2 69/6/2
f  69/6/3 70/5/3 72/7/3 71/8/3
f  71/8/4 72/7/4 66/9/4 65/10/4
f  66/2/5 72/11/5 70/12/5 68/3/5
f  71/13/6 65/1/6 67/4/6 69/14/6
f  73/1/1 74/2/1 76/3/1 75/4/1
f  75/4/2 76/3/2 78/5/2 77/6/2
f  77/6/3 78/5/3 80/7/3 79/8/3
f  79/8/4 80/7/4 74/9/4 73/10/4
f  74/2/5 80/11/5 78/12/5 76/3/5
f  79/13/6 73/1/6 75/4/6 77/14/6
f  81/1/1 82/2/1 84/3/1 83/4/1
f  83/4/2 84/3/2 86/5/2 85/6/2
f  85/6/3 86/5/3 88/7/3 87/8/3
f  87/8/4 88/7/4 82/9/4 81/10/4
f  82/2/5 88/11/5 86/12/5 84/3/5
f  87/13/6 81/1/6 83/4/6 85/14/6
f  89/1/1 90/2/1 92/3/1 91/4/1
f  91/4/2 92/3/2 94/5/2 93/6/2
f  93/6/3 94/5/3 96/7/3 95/8/3
f  95/8/4 96/7/4 90/9/4 89/10/4
f  90/2/5 96/11/5 94/12/5 92/3/5
f  95/13/6 89/1/6 91/4/6 93/14/6
usemtl phong2
f  9/15/1 10/16/1 12/17/1 11/18/1
f  11/18/2 12/17/2 14/19/2 13/20/2
f  13/20/3 14/19/3 16/21/3 15/22/3
f  15/22/4 16/21/4 10/23/4 9/24/4
f  10/16/5 16/25/5 14/26/5 12/17/5
f  15/27/6 9/15/6 11/18/6 13/28/6
usemtl phong1
f  1/29/1 2/30/1 4/31/1 3/32/1
f  3/32/2 4/31/2 6/33/2 5/34/2
f  5/34/3 6/33/3 8/35/3 7/36/3
f  7/36/4 8/35/4 2/37/4 1/38/4
f  2/30/5 8/39/5 6/40/5 4/31/5
f  7/41/6 1/29/6 3/32/6 5/42/6
