# 
# Wavefront OBJ file
# Converted by the DEEP Exploration Deep Exploration 5.7 5.7.0.4228 Release
# Right Hemisphere, LTD
# http://www.righthemisphere.com/
# 
mtllib broken_house.mtl
# object house1
g house1
v -1.16677 3.36853 2.61035
v -1.16677 3.23070 2.61035
v -2.68948 3.23070 2.61035
v -2.68948 3.36853 2.61035
v -2.68948 3.36853 0.00000
v -2.68948 3.23070 0.00000
v -1.16677 3.23070 0.00000
v -1.16677 3.36853 0.00000
v -1.96195 -3.24598 5.45394
v -0.43923 -3.24598 5.45394
v -0.43923 -3.24598 6.97665
v -1.96195 -3.24598 6.97665
v -1.96195 -3.36853 5.45394
v -1.96195 -3.36853 6.97665
v -0.43923 -3.36853 6.97665
v -0.43923 -3.36853 5.45394
v 3.19487 -2.09866 4.75543
v 3.19487 -0.57595 4.75543
v 3.19487 -0.57595 5.96212
v 3.19487 -2.09866 5.96212
v 3.36853 -2.09866 4.75543
v 3.36853 -2.09866 5.96212
v 3.36853 -0.57595 5.96212
v 3.36853 -0.57595 4.75543
v -0.76136 -5.05636 2.61035
v -0.76136 -4.90287 2.61035
v 0.76136 -4.90287 2.61035
v 0.76136 -5.05636 2.61035
v 0.76136 -5.05635 -0.00000
v 0.76136 -4.90287 -0.00000
v -0.76136 -4.90287 -0.00000
v -0.76136 -5.05635 -0.00000
v 8.84455 -1.52969 0.76654
v 8.84455 -0.00698 0.76654
v 8.84455 -0.00698 1.97323
v 8.84455 -1.52969 1.97323
v 9.00000 -1.52969 0.76654
v 9.00000 -1.52969 1.97323
v 9.00000 -0.00698 1.97323
v 9.00000 -0.00698 0.76654
v -8.14991 -5.17689 3.86717
v -8.51130 5.42952 2.51851
v -3.85091 5.42240 3.14935
v -3.85091 -1.50000 3.14935
v -3.85091 -1.50000 -0.00000
v -3.85091 5.42240 0.00000
v -11.46430 5.46663 -0.03132
v -11.37594 -1.50000 -0.00000
v 0.00000 -5.79249 4.71345
v 1.85959 -5.79249 3.07468
v 2.10001 -5.79249 3.07468
v 0.00000 -5.79249 4.92532
v -1.85959 -3.36853 3.07468
v -2.10001 -3.36853 3.07468
v 0.00000 -3.36853 4.92532
v 2.10001 -3.36853 3.07468
v 1.85959 -3.36853 3.07468
v -1.81216 -3.36853 3.11648
v -1.81216 -5.05636 3.11648
v 0.00000 -5.05636 4.71345
v 1.81216 -3.36853 3.11648
v 1.81216 -5.05636 3.11648
v -3.36853 -3.36853 6.69265
v -3.36853 3.36853 6.69265
v -3.36853 3.36853 4.00000
v -3.36853 -1.50000 4.00000
v -3.36853 -1.50000 -0.00000
v -3.36853 -3.36853 -0.00000
v -2.97274 3.36853 0.00000
v -2.97274 6.00000 0.00000
v -2.97274 6.00000 4.00000
v -2.97274 3.36853 4.00000
v -12.00000 6.00000 0.00000
v -12.00000 -1.50000 -0.00000
v -8.69343 -2.11651 3.82518
v -8.30874 6.04967 2.75941
v 9.00000 3.36853 0.00000
v 9.00000 -2.00000 -0.00000
v 3.36853 -2.00000 -0.00000
v 3.36853 -3.36853 -0.00000
v 1.81216 -3.36853 -0.00000
v -1.81216 -3.36853 -0.00000
v 3.36853 -3.36853 6.69265
v 0.00000 -3.36853 9.66118
v 0.51796 -3.36853 6.97665
v 2.04067 -3.36853 6.97665
v 2.04067 -3.36853 5.45394
v 0.51796 -3.36853 5.45394
v 1.81216 -5.05635 -0.00000
v -1.81216 -5.05635 -0.00000
v 0.00000 3.36853 9.66118
v 3.36853 3.36853 6.69265
v 3.36853 3.36853 4.12011
v 3.36853 3.36853 4.00000
v 3.36853 3.36853 3.81995
v 9.00000 3.36853 2.70470
v 0.51796 3.36853 6.97665
v 0.51796 3.36853 5.45394
v 2.04067 3.36853 5.45394
v 2.04067 3.36853 6.97665
v 9.00000 -2.00000 2.70470
v 3.36853 -2.00000 3.81995
v 5.08375 -2.00000 1.97323
v 7.44869 -2.00000 1.97323
v 7.44869 -2.00000 0.76654
v 5.08375 -2.00000 0.76654
v 9.00000 1.20094 1.97323
v 9.00000 2.72365 1.97323
v 9.00000 2.72365 0.76654
v 9.00000 1.20094 0.76654
v 3.36853 -2.60606 4.12011
v 3.36853 -2.60606 3.81995
v 3.36853 0.63197 5.96212
v 3.36853 2.15468 5.96212
v 3.36853 2.15468 4.75543
v 3.36853 0.63197 4.75543
v 0.00000 4.25682 9.66118
v 3.76947 4.25682 6.33932
v 3.76947 -4.25682 6.33932
v 0.00000 -4.25682 9.66118
v 4.25682 4.25682 6.33932
v 4.25682 -4.25682 6.33932
v 9.74403 3.87803 2.55735
v 3.36853 3.87803 3.81995
v 3.36853 3.87803 4.12011
v 9.74403 3.87803 2.85750
v 9.74403 -2.60606 2.85750
v 9.74403 -2.60606 2.55735
v 7.44869 -1.87181 0.76654
v 5.08375 -1.87181 0.76654
v 7.44869 -1.87181 1.97323
v 5.08375 -1.87181 1.97323
v 8.84455 2.72365 0.76654
v 8.84455 1.20094 0.76654
v 8.84455 2.72365 1.97323
v 8.84455 1.20094 1.97323
v 2.04067 -3.24598 5.45394
v 0.51796 -3.24598 5.45394
v 2.04067 -3.24598 6.97665
v 0.51796 -3.24598 6.97665
v 3.19487 2.15468 4.75543
v 3.19487 0.63197 4.75543
v 3.19487 2.15468 5.96212
v 3.19487 0.63197 5.96212
v 2.04067 3.21534 5.45394
v 2.04067 3.21534 6.97665
v 0.51796 3.21534 5.45394
v 0.51796 3.21534 6.97665
v -3.85091 -1.17890 -0.00000
v -3.85091 -1.17890 3.14935
v -8.14991 -4.85579 3.86717
v -11.37594 -1.17890 -0.00000
# 152 verticies
vt 0.08169 0.99801
vt 0.00153 0.99801
vt 0.00153 0.00199
vt 0.08169 0.00199
vt 0.16816 0.99801
vt 0.08800 0.99801
vt 0.08800 0.00199
vt 0.16816 0.00199
vt 0.17429 0.00199
vt 0.25445 0.00199
vt 0.25445 0.99801
vt 0.17429 0.99801
vt 0.26058 0.00199
vt 0.34074 0.00199
vt 0.34074 0.99801
vt 0.26058 0.99801
vt -1.33440 1.02054
vt -3.20640 1.02054
vt -3.20640 0.27234
vt -1.85360 0.27234
vt -1.85360 -0.83913
vt -1.33440 -0.83913
vt -0.57727 0.15836
vt 0.15503 0.15836
vt 0.15503 1.27150
vt -0.57727 1.27150
vt -1.32292 0.15908
vt 0.76150 0.15908
vt 0.76150 1.27078
vt -1.32292 1.27078
vt 0.74449 1.03403
vt 0.74449 0.15967
vt 0.87841 0.15967
vt 0.87841 1.27020
vt -1.51797 1.27020
vt -1.51797 0.15967
vt -1.34471 0.15967
vt -1.34471 1.03403
vt -1.58610 0.15885
vt 0.92384 0.15885
vt 0.92384 1.27101
vt -1.58610 1.27101
vt -0.52153 0.67303
vt 0.18341 0.01250
vt -0.25579 0.67303
vt -1.33475 -0.84108
vt -0.90267 -0.84108
vt -0.98259 0.01250
vt -0.91584 0.01250
vt -0.90267 0.02411
vt 0.11667 0.01250
vt 0.10350 -0.84108
vt 0.53558 -0.84108
vt 0.10350 0.02411
vt -0.94426 0.67303
vt -0.39959 0.52627
vt -1.33475 1.01692
vt 0.16694 0.67303
vt 0.16694 1.09576
vt -0.52153 1.09576
vt -0.25579 1.09576
vt -0.39959 1.84103
vt -0.94426 1.09576
vt 0.53558 1.01692
vt -0.90126 0.02782
vt -1.36467 0.02782
vt -1.36467 -0.83838
vt -0.90126 -0.83838
vt -0.18822 -0.11361
vt -0.18822 -0.83834
vt 0.10352 -0.83834
vt 0.10352 0.02691
vt -0.39960 0.47028
vt -0.90272 0.02691
vt -0.90272 -0.83834
vt -0.61098 -0.83834
vt -0.61098 -0.11361
vt -0.96651 0.67586
vt -0.07590 -0.83853
vt -0.54370 0.67586
vt -2.89889 -0.08752
vt -2.89889 -0.83853
vt -1.33521 0.22215
vt -1.33521 0.27215
vt -1.33521 0.30550
vt -1.33521 1.01981
vt -0.96651 1.09867
vt -0.07590 -0.11372
vt 0.34691 -0.83853
vt 0.42556 -0.83853
vt 0.34691 -0.11372
vt -0.39988 1.84408
vt -0.54370 1.09867
vt 0.42556 0.27215
vt 0.53546 0.27215
vt 0.53546 1.01981
vt -4.39637 -0.08783
vt -5.96375 0.22258
vt -5.96375 -0.84061
vt -4.39637 -0.84061
vt -5.48636 -0.29141
vt -4.82814 -0.29141
vt -4.82814 -0.62726
vt -5.48636 -0.62726
vt -2.89882 -0.08533
vt -4.39561 -0.08533
vt -4.39561 -0.83942
vt -2.89882 -0.83942
vt -4.26448 -0.28927
vt -3.83994 -0.28927
vt -3.83994 -0.62570
vt -4.26448 -0.62570
vt -3.50316 -0.28927
vt -3.07862 -0.28927
vt -3.07862 -0.62570
vt -3.50316 -0.62570
vt 0.91689 0.21874
vt 0.53616 -0.84399
vt 0.91689 -0.84399
vt 0.53616 1.01793
vt 0.74828 0.30224
vt 0.88945 0.81469
vt 0.74828 0.21874
vt 1.64912 0.47899
vt 2.41044 0.30224
vt 2.07274 0.47899
vt 2.41044 1.01793
vt 2.07274 0.81469
vt 1.64912 0.81469
vt 1.31307 0.81469
vt 1.00000 2.96947
vt 1.00000 2.00000
vt 0.00000 2.00000
vt 0.00000 2.96947
vt 2.00000 0.00000
vt 1.00000 0.00000
vt 1.00000 1.00000
vt 2.00000 1.00000
vt 0.00000 0.00000
vt 0.00000 1.00000
vt 1.15638 1.13926
vt -0.21775 1.13926
vt -0.21775 -0.05122
vt 1.15638 -0.05122
vt -0.70684 -0.01432
vt -0.70684 -0.04427
vt 1.03026 -0.04427
vt 1.03026 1.13013
vt 0.50271 1.13013
vt 0.50271 -0.01432
vt -2.49611 1.75826
vt -3.20579 1.75826
vt -3.20579 -0.89566
vt 3.59597 -0.89566
vt 3.59597 1.75826
vt 2.88629 1.75826
vt 2.88629 -0.61338
vt -2.49611 -0.61338
vt -0.36739 1.75736
vt -0.36739 -0.89477
vt 2.32991 -0.89477
vt 2.32991 1.75736
vt 2.11796 1.75736
vt 2.05474 -0.56389
vt -0.13155 -0.56389
vt -0.13155 1.72949
vt -0.33904 1.72949
vt -0.33904 -0.86689
vt 2.30156 -0.86689
vt 2.30156 1.72949
vt 2.05474 1.72949
vt 0.17045 0.58300
vt 0.11786 0.58300
vt 0.11786 0.00199
vt 0.17045 0.00199
vt 0.05293 0.00199
vt 0.05293 0.99801
vt 0.00034 0.99801
vt 0.00034 0.00199
vt 0.11178 0.00199
vt 0.11178 0.99801
vt 0.05919 0.99801
vt 0.05919 0.00199
vt 0.17533 0.00199
vt 0.25549 0.00199
vt 0.25549 0.99801
vt 0.17533 0.99801
vt 0.00068 0.00199
vt 0.08084 0.00199
vt 0.08084 0.99801
vt 0.00068 0.99801
vt 0.34272 0.99801
vt 0.26256 0.99801
vt 0.26256 0.00199
vt 0.34272 0.00199
vt 0.16826 0.99801
vt 0.08810 0.99801
vt 0.08810 0.00199
vt 0.16826 0.00199
vt 0.24097 0.00199
vt 0.35456 0.00199
vt 0.35456 0.79130
vt 0.24097 0.79130
vt 0.00095 0.00199
vt 0.11454 0.00199
vt 0.11454 0.99801
vt 0.00095 0.99801
vt 0.36089 0.00199
vt 0.47449 0.00199
vt 0.47449 0.79130
vt 0.36089 0.79130
vt 0.12105 0.00199
vt 0.23464 0.00199
vt 0.23464 0.99801
vt 0.12105 0.99801
vt 0.12933 0.00199
vt 0.18789 0.00199
vt 0.18789 0.58300
vt 0.12933 0.58300
vt 0.05894 0.00199
vt 0.05894 0.99801
vt 0.00038 0.99801
vt 0.00038 0.00199
vt 0.12351 0.00199
vt 0.12351 0.99801
vt 0.06494 0.99801
vt 0.06494 0.00199
vt 0.21722 0.00199
vt 0.31890 0.00199
vt 0.31890 0.79130
vt 0.21722 0.79130
vt 0.00085 0.00199
vt 0.10253 0.00199
vt 0.10253 0.99801
vt 0.00085 0.99801
vt 0.32532 0.00199
vt 0.42699 0.00199
vt 0.42699 0.79130
vt 0.32532 0.79130
vt 0.10913 0.00199
vt 0.21081 0.00199
vt 0.21081 0.99801
vt 0.10913 0.99801
vt 0.87550 0.99801
vt 0.00175 0.99801
vt 0.00175 0.00199
vt 0.87550 0.00199
vt 0.00041 0.99801
vt 0.00041 0.00199
vt 0.09920 0.00199
vt 0.09920 0.99801
vt 0.53882 0.00199
vt 0.82916 0.00199
vt 0.82916 0.99801
vt 0.00166 0.99801
vt 0.00166 0.04566
vt 0.53882 0.04566
vt 0.05713 0.00199
vt 0.05713 0.99801
vt 0.00011 0.99801
vt 0.00011 0.00199
vt 0.00049 0.99801
vt 0.19774 0.00199
vt 0.24463 0.00199
vt 0.04738 0.99801
vt 0.35315 0.00199
vt 0.58795 0.00199
vt 0.58795 0.99801
vt 0.00117 0.99801
vt 0.00117 0.00199
vt 0.00009 0.99801
vt 0.00009 0.00199
vt 0.04620 0.00199
vt 0.04620 0.99801
vt 0.04738 0.00199
vt 0.24463 0.99801
vt 0.19774 0.99801
vt 0.00049 0.00199
vt 0.05446 0.99801
vt 0.00047 0.99801
vt 0.00047 0.00199
vt 0.05446 0.00199
vt 0.17634 0.51020
vt 0.12236 0.51020
vt 0.12236 0.00199
vt 0.17634 0.00199
vt 0.06151 0.00199
vt 0.11549 0.00199
vt 0.11549 0.99801
vt 0.06151 0.99801
vt 0.18321 0.00199
vt 0.23719 0.00199
vt 0.23719 0.51020
vt 0.18321 0.51020
vt 0.21483 0.00199
vt 0.31503 0.00199
vt 0.31503 0.99801
vt 0.21483 0.99801
vt 0.00084 0.00199
vt 0.10104 0.00199
vt 0.10104 0.99801
vt 0.00084 0.99801
vt 0.42193 0.99801
vt 0.32172 0.99801
vt 0.32172 0.00199
vt 0.42193 0.00199
vt 0.20813 0.99801
vt 0.10793 0.99801
vt 0.10793 0.00199
vt 0.20813 0.00199
vt 0.09160 0.00199
vt 0.09160 0.41884
vt 0.04910 0.41884
vt 0.04910 0.00199
vt 0.00028 0.00199
vt 0.04278 0.00199
vt 0.04278 0.99801
vt 0.00028 0.99801
vt 0.14024 0.00199
vt 0.14024 0.41884
vt 0.09774 0.41884
vt 0.09774 0.00199
vt 1.27786 0.00416
vt 1.27786 0.99584
vt -0.80078 0.99584
vt -0.80078 0.00416
vt 1.39598 0.00334
vt 1.39598 0.99666
vt -0.97747 0.99666
vt -0.97747 0.00334
vt 1.27896 0.00364
vt 1.27896 0.99636
vt -0.80188 0.99636
vt -0.80188 0.00364
# 334 texture verticies
vn 0.00000 -0.00000 1.00000
vn -1.00000 -0.00000 0.00000
vn 0.00000 0.00000 -1.00000
vn 1.00000 0.00000 0.00000
vn -0.00000 -1.00000 -0.00000
vn 0.00000 1.00000 0.00000
vn 0.00000 -1.00000 -0.00000
vn 1.00000 0.00000 0.00000
vn 1.00000 0.00000 0.00000
vn 0.66116 -0.00000 0.75025
vn -0.66116 0.00000 -0.75025
vn 0.19427 -0.00000 0.98095
vn -0.19427 0.00000 -0.98095
vn -1.00000 0.00000 0.00000
# 14 normals
usemtl lambert2
f  87/1/1 137/2/1 138/3/1 88/4/1
f  86/5/2 139/6/2 137/7/2 87/8/2
f  85/9/3 140/10/3 139/11/3 86/12/3
f  88/13/4 138/14/4 140/15/4 85/16/4
usemtl wall
f  63/17/2 64/18/2 65/19/2 66/20/2 67/21/2 68/22/2
f  69/23/4 70/24/4 71/25/4 72/26/4
f  73/27/2 74/28/2 75/29/2 76/30/2
f  44/31/5 45/32/5 67/33/5 66/34/5 75/35/5 74/36/5 48/37/5 41/38/5
f  70/39/6 73/40/6 76/41/6 71/42/6
f  16/43/7 56/44/7 88/45/7
f  68/46/7 82/47/7 54/48/7
f  54/48/7 82/47/7 53/49/7
f  58/50/7 53/49/7 82/47/7
f  57/51/7 81/52/7 80/53/7
f  61/54/7 81/52/7 57/51/7
f  57/51/7 80/53/7 56/44/7
f  68/46/7 54/48/7 13/55/7
f  55/56/7 13/55/7 54/48/7
f  13/55/7 55/56/7 16/43/7
f  63/57/7 68/46/7 13/55/7
f  88/45/7 56/44/7 87/58/7
f  86/59/7 15/60/7 85/61/7
f  84/62/7 14/63/7 15/60/7
f  83/64/7 56/44/7 80/53/7
f  83/64/7 87/58/7 56/44/7
f  83/64/7 86/59/7 87/58/7
f  84/62/7 86/59/7 83/64/7
f  84/62/7 15/60/7 86/59/7
f  55/56/7 56/44/7 16/43/7
f  61/65/8 62/66/8 89/67/8 81/68/8
f  59/65/2 58/66/2 82/67/2 90/68/2
f  28/69/7 29/70/7 89/71/7 62/72/7 60/73/7 59/74/7 90/75/7 32/76/7\
25/77/7
f  99/78/6 8/79/6 98/80/6
f  8/79/6 96/81/6 77/82/6
f  8/79/6 95/83/6 96/81/6
f  8/79/6 94/84/6 95/83/6
f  8/79/6 93/85/6 94/84/6
f  8/79/6 92/86/6 93/85/6
f  8/79/6 99/78/6 92/86/6
f  100/87/6 92/86/6 99/78/6
f  98/80/6 8/79/6 1/88/6
f  5/89/6 69/90/6 4/91/6
f  92/86/6 100/87/6 91/92/6
f  100/87/6 97/93/6 91/92/6
f  97/93/6 4/91/6 91/92/6
f  72/94/6 91/92/6 4/91/6
f  65/95/6 91/92/6 72/94/6
f  64/96/6 91/92/6 65/95/6
f  72/94/6 4/91/6 69/90/6
f  101/97/7 102/98/7 79/99/7 78/100/7 103/101/7 104/102/7 105/103/7\
106/104/7
f  96/105/4 101/106/4 78/107/4 77/108/4 38/109/4 39/110/4 40/111/4\
37/112/4 107/113/1 108/114/1 109/115/1 110/116/4
f  102/117/9 80/118/9 79/119/9
f  83/120/9 111/121/9 22/122/9
f  112/123/9 80/118/9 102/117/9
f  111/121/9 80/118/9 112/123/9
f  116/124/9 93/125/9 115/126/9
f  92/127/9 115/126/9 93/125/9
f  92/127/9 114/128/9 115/126/9
f  92/127/9 113/129/9 114/128/9
f  92/127/9 23/130/9 113/129/9
f  92/127/9 22/122/9 23/130/9
f  83/120/9 22/122/9 92/127/9
f  83/120/9 80/118/9 111/121/9
usemtl door
f  6/131/6 3/132/6 2/133/6 7/134/6
usemtl window
f  33/135/4 34/136/4 35/137/4 36/138/4
f  130/136/7 129/139/7 131/140/7 132/137/7
f  134/135/4 133/136/4 135/137/4 136/138/4
usemtl roof
f  55/141/10 52/142/10 51/143/10 56/144/10
f  61/145/11 57/146/11 50/147/11 49/148/11 60/149/11 62/150/11
f  91/151/11 117/152/11 118/153/11 119/154/11 120/155/11 84/156/11\
83/157/11 92/158/11
f  111/159/12 127/160/12 126/161/12 125/162/12 93/163/12
f  101/164/13 96/165/13 95/166/13 124/167/13 123/168/13 128/169/13\
112/170/13 102/171/13
usemtl white_paint
f  1/172/3 2/173/3 3/174/3 4/175/3
f  5/176/4 4/177/4 3/178/4 6/179/4
f  7/180/14 2/181/14 1/182/14 8/183/14
f  13/184/9 9/185/9 12/186/9 14/187/9
f  14/188/3 12/189/3 11/190/3 15/191/3
f  15/192/2 11/193/2 10/194/2 16/195/2
f  16/196/1 10/197/1 9/198/1 13/199/1
f  21/200/6 17/201/6 20/202/6 22/203/6
f  22/204/3 20/205/3 19/206/3 23/207/3
f  23/208/7 19/209/7 18/210/7 24/211/7
f  24/212/1 18/213/1 17/214/1 21/215/1
f  25/216/3 26/217/3 27/218/3 28/219/3
f  29/220/2 28/221/2 27/222/2 30/223/2
f  31/224/4 26/225/4 25/226/4 32/227/4
f  37/228/6 33/229/6 36/230/6 38/231/6
f  38/232/3 36/233/3 35/234/3 39/235/3
f  39/236/7 35/237/7 34/238/7 40/239/7
f  40/240/1 34/241/1 33/242/1 37/243/1
f  151/244/3 42/245/3 43/246/3 150/247/3
f  56/248/3 51/249/3 50/250/3 57/251/3
f  72/252/1 71/253/1 76/254/1 75/255/1 66/256/1 65/257/1
f  119/258/3 118/259/3 121/260/3 122/261/3
f  123/262/6 124/263/6 125/264/6 126/265/6
f  94/266/2 93/267/2 125/268/2 124/269/2 95/270/2
f  128/271/4 123/272/4 126/273/4 127/274/4
f  112/275/7 128/276/7 127/277/7 111/278/7
f  105/279/1 129/280/1 130/281/1 106/282/1
f  104/283/2 131/284/2 129/285/2 105/286/2
f  103/287/3 132/288/3 131/289/3 104/290/3
f  106/291/4 130/292/4 132/293/4 103/294/4
f  109/232/1 133/233/1 134/234/1 110/235/1
f  108/228/7 135/229/7 133/230/7 109/231/7
f  107/240/3 136/241/3 135/242/3 108/243/3
f  110/236/6 134/237/6 136/238/6 107/239/6
f  115/204/1 141/205/1 142/206/1 116/207/1
f  114/200/7 143/201/7 141/202/7 115/203/7
f  113/212/3 144/213/3 143/214/3 114/215/3
f  99/295/2 145/296/2 146/297/2 100/298/2
f  98/299/1 147/300/1 145/301/1 99/302/1
f  97/303/4 148/304/4 147/305/4 98/306/4
f  100/307/3 146/308/3 148/309/3 97/310/3
f  45/311/2 44/312/2 150/313/2 149/314/2
f  41/315/3 151/316/3 150/317/3 44/318/3
f  152/319/4 151/320/4 41/321/4 48/322/4
usemtl garage_wall
f  149/323/2 150/324/2 43/325/2 46/326/2
f  46/327/7 43/328/7 42/329/7 47/330/7
f  47/331/4 42/332/4 151/333/4 152/334/4
# object tiles1
g tiles1
v -2.97274 3.23070 0.00000
v 3.76947 3.23070 0.00000
v -2.97274 6.00000 0.00000
v 3.76947 6.00000 0.00000
# 4 verticies
vt 2.23823 1.33498
vt -1.82749 1.33498
vt -1.82749 -0.33498
vt 2.23823 -0.33498
# 4 texture verticies
vn 0.00000 -0.00000 1.00000
# 1 normals
usemtl lambert2
f  153/335/15 154/336/15 156/337/15 155/338/15
