# 
# Wavefront OBJ file
# Converted by the DEEP Exploration Deep Exploration 5.7 5.7.0.4228 Release
# Right Hemisphere, LTD
# http://www.righthemisphere.com/
# 
mtllib hill_new.mtl
# object pSphere1
g pSphere1
v 0.97929 3.01394 0.56412
v -1.77155 2.43833 0.56412
v -4.69153 -21.59051 0.56412
v -0.97929 -23.67309 0.56412
v 1.77155 -23.09748 0.56412
v 2.86643 0.93136 0.56412
v 1.86272 39.12926 0.62713
v -3.97833 29.57208 0.62733
v -4.69406 -22.95697 0.62733
v -1.86272 -26.39201 0.62713
v 3.36969 -25.29713 0.62713
v 5.45228 1.77155 0.62713
v 4.63798 -27.04278 0.59711
v 7.62670 35.83473 0.59711
v 8.01290 39.12926 0.66229
v 3.01394 42.67236 0.66229
v -3.01394 42.67236 0.66229
v -7.89061 30.49681 0.66229
v -12.83535 -0.00000 0.66229
v -7.89061 -26.39201 0.66228
v -3.01394 -29.93511 0.66228
v 3.01394 -29.93511 0.66228
v 7.89061 -15.64799 0.66228
v 9.87562 -9.91512 0.66228
v 8.41896 39.42429 0.00000
v 3.16905 43.14972 1.88369
v -3.16905 43.14972 1.88369
v -8.29668 30.79184 1.88369
v -13.33728 -0.00000 1.88369
v -8.29668 -26.68703 1.88369
v -3.16905 -30.41248 1.88369
v 3.16905 -30.41248 1.88369
v 8.29668 -15.94301 -0.00000
v 10.37754 -9.91512 -0.00000
v 8.01290 39.12926 3.16905
v 3.01394 40.27157 3.16905
v -3.01394 31.95534 1.42843
v -7.89061 23.58310 3.16905
v -9.75333 -0.00000 3.16905
v -7.89061 -20.13417 3.16905
v -3.01394 -23.67728 3.16905
v 3.01394 -23.67728 3.16905
v 7.89061 -15.64799 3.16905
v 6.94240 -9.91512 3.16905
v 6.83444 35.43498 3.18646
v 2.56381 35.64535 3.18646
v -2.56381 35.64535 4.59479
v -6.71215 22.72690 7.27163
v -7.95530 -0.00000 7.27163
v -6.71215 -18.86422 3.95132
v -2.56381 -21.87817 3.95132
v 2.56381 -21.87817 3.78938
v 6.71215 -14.79179 6.02789
v 8.41897 -0.00000 6.02789
v 4.99895 27.86899 5.45525
v 1.98501 36.97246 5.45525
v -1.74043 26.57389 5.45525
v -4.87666 21.39334 7.49169
v -4.10352 -0.00000 10.15284
v -2.95230 -3.54310 9.07105
v -1.86272 -19.72042 6.22011
v 1.86272 -15.23423 6.22011
v 4.87666 -13.45823 8.29668
v 6.15018 -0.00000 8.29668
v 2.56381 1.86272 11.60949
v 1.10158 25.69332 8.64787
v -0.85700 25.69332 8.64787
v -2.56381 1.86272 11.60949
v -3.16905 -0.00000 11.60949
v -2.56381 -1.86272 10.36575
v -0.97929 -3.01394 10.52770
v 0.97929 -3.01394 10.52770
v 2.56381 -1.86272 10.36575
v 3.16905 -0.00000 10.36575
v 0.00000 -0.00000 0.06219
v 0.00000 -0.00000 12.11142
# 76 verticies
vt 0.00000 0.50000
vt 1.20000 0.50000
vt 1.20000 1.25000
vt 0.00000 1.00000
vt 3.00000 0.50000
vt 3.00000 1.25000
vt 5.40000 0.50000
vt 5.40000 1.25000
vt 7.20000 0.50000
vt 7.20000 1.25000
vt 9.00000 0.50000
vt 9.00000 1.00000
vt 11.40000 0.50000
vt 11.40000 1.00000
vt 0.00000 1.50000
vt 9.00000 1.50000
vt 11.40000 1.50000
vt 1.20000 2.00000
vt 0.00000 2.00000
vt 2.40000 2.00000
vt 3.60000 2.00000
vt 4.80000 2.00000
vt 6.00000 2.00000
vt 7.20000 2.00000
vt 8.40000 2.00000
vt 9.60000 2.00000
vt 10.80000 2.00000
vt 12.00000 2.00000
vt 1.20000 2.50000
vt 0.00000 2.50000
vt 2.40000 2.50000
vt 3.60000 2.50000
vt 4.80000 2.50000
vt 6.00000 2.50000
vt 7.20000 2.50000
vt 8.40000 2.50000
vt 9.60000 2.50000
vt 10.80000 2.50000
vt 12.00000 2.50000
vt 1.20000 3.00000
vt 0.00000 3.00000
vt 2.40000 3.00000
vt 3.60000 3.00000
vt 4.80000 3.00000
vt 6.00000 3.00000
vt 7.20000 3.00000
vt 8.40000 3.00000
vt 9.60000 3.00000
vt 10.80000 3.00000
vt 12.00000 3.00000
vt 1.20000 3.50000
vt 0.00000 3.50000
vt 2.40000 3.50000
vt 3.60000 3.50000
vt 4.80000 3.50000
vt 6.00000 3.50000
vt 7.20000 3.50000
vt 8.40000 3.50000
vt 9.60000 3.50000
vt 10.80000 3.50000
vt 12.00000 3.50000
vt 1.20000 4.00000
vt 0.00000 4.00000
vt 2.40000 4.00000
vt 3.60000 4.00000
vt 4.80000 4.00000
vt 6.00000 4.00000
vt 7.20000 4.00000
vt 8.40000 4.00000
vt 9.60000 4.00000
vt 10.80000 4.00000
vt 12.00000 4.00000
vt 1.20000 4.50000
vt 0.00000 4.50000
vt 2.40000 4.50000
vt 3.60000 4.50000
vt 4.80000 4.50000
vt 6.00000 4.50000
vt 7.20000 4.50000
vt 8.40000 4.50000
vt 9.60000 4.50000
vt 10.80000 4.50000
vt 12.00000 4.50000
vt 0.60000 0.00000
vt 1.80000 0.00000
vt 4.20000 0.00000
vt 6.60000 0.00000
vt 7.80000 0.00000
vt 10.20000 0.00000
vt 0.60000 5.00000
vt 1.80000 5.00000
vt 3.00000 5.00000
vt 4.20000 5.00000
vt 5.40000 5.00000
vt 6.60000 5.00000
vt 7.80000 5.00000
vt 9.00000 5.00000
vt 10.20000 5.00000
vt 11.40000 5.00000
# 99 texture verticies
vn 0.01465 0.00203 -0.99989
vn -0.00232 0.00195 -1.00000
vn -0.03680 0.00175 -0.99932
vn -0.02204 -0.02610 -0.99942
vn 0.00520 -0.02486 -0.99968
vn 0.02951 -0.00184 -0.99956
vn -0.00551 -0.00053 -0.99998
vn -0.00312 0.01493 -0.99988
vn -0.03703 0.00209 -0.99931
vn 0.00572 0.01339 -0.99989
vn -0.00380 0.00470 -0.99998
vn -0.00816 0.00327 -0.99996
vn -0.00511 0.00035 -0.99999
vn -0.00910 -0.00171 -0.99996
vn -0.00583 -0.00641 -0.99996
vn -0.00314 -0.01424 -0.99989
vn 0.10176 -0.03473 0.99420
vn 0.01631 -0.00118 -0.99987
vn 0.12644 0.00480 -0.99196
vn 0.18600 0.48388 -0.85514
vn 0.00000 0.93139 -0.36401
vn -0.87878 0.35835 -0.31518
vn -0.92068 0.15000 -0.36033
vn -0.91633 -0.17238 -0.36142
vn -0.54746 -0.75351 -0.36402
vn 0.00000 -0.93139 -0.36402
vn 0.50833 -0.23118 -0.82955
vn -0.76675 0.26508 -0.58465
vn -0.82106 -0.03189 -0.56994
vn 0.43753 0.70541 0.55764
vn -0.17726 0.05795 0.98246
vn 0.07544 0.04723 0.99603
vn -0.46339 0.05883 0.88420
vn -0.45938 -0.06773 0.88565
vn -0.13284 -0.18284 0.97413
vn 0.00000 -0.18746 0.98227
vn 0.77114 -0.29569 0.56383
vn 0.85063 -0.08192 0.51934
vn 0.85502 0.00772 0.51854
vn 0.00059 0.00407 0.99999
vn -0.58623 0.77724 0.22855
vn -0.91580 0.39854 0.04981
vn -0.93609 0.06278 0.34612
vn -0.83531 -0.11235 0.53818
vn -0.24333 -0.33492 0.91028
vn 0.01352 -0.36316 0.93163
vn 0.61439 -0.46159 0.63988
vn 0.99917 -0.03693 0.01748
vn 0.99412 0.00241 -0.10824
vn 0.48821 0.38184 0.78476
vn -0.27232 0.35308 0.89508
vn 0.22857 0.15816 0.96060
vn -0.46739 0.05819 0.88214
vn -0.46345 -0.21825 0.85882
vn -0.44615 -0.24945 0.85949
vn 0.24692 -0.45642 0.85482
vn 0.07893 -0.48724 0.86969
vn 0.72810 -0.07681 0.68115
vn 0.65366 0.09564 0.75072
vn 0.57486 0.15046 0.80430
vn -0.64788 0.35414 0.67441
vn -0.48521 0.22650 0.84455
vn -0.73029 0.07246 0.67928
vn -0.64969 -0.46861 0.59859
vn -0.54363 -0.20999 0.81263
vn 0.21978 -0.27846 0.93496
vn -0.21218 -0.27922 0.93649
vn 0.52350 -0.06420 0.84960
vn 0.69835 0.07948 0.71133
vn 0.13308 0.12059 -0.98374
vn -0.03678 0.17578 -0.98374
vn -0.23578 0.02865 -0.97138
vn -0.01162 -0.02072 -0.99972
vn 0.00447 -0.02138 -0.99976
vn 0.17499 -0.00797 -0.98454
vn 0.09963 0.12873 0.98666
vn -0.00000 0.13360 0.99104
vn -0.09892 0.12970 0.98661
vn -0.15623 0.05076 0.98641
vn -0.12754 -0.57909 0.80523
vn -0.34185 -0.34770 0.87307
vn 0.00000 -0.46516 0.88523
vn 0.34185 -0.34770 0.87307
vn 0.47667 -0.15488 0.86533
vn 0.44356 -0.39353 0.80523
# 85 normals
usemtl hill
f  6/1/1 1/2/1 7/3/1 12/4/1
f  1/2/2 2/5/2 8/6/2 7/3/2
f  2/5/3 3/7/3 9/8/3 8/6/3
f  3/7/4 4/9/4 10/10/4 9/8/4
f  4/9/5 5/11/5 11/12/5 10/10/5
f  5/11/6 6/13/6 12/14/6 11/12/6
f  12/4/7 7/3/7 14/15/7
f  10/10/8 11/12/8 13/16/8
f  11/12/9 12/14/9 14/17/9 13/16/9
f  14/15/10 7/3/10 16/18/10 15/19/10
f  7/3/11 8/6/11 17/20/11 16/18/11
f  8/6/12 18/21/12 17/20/12
f  8/6/13 9/8/13 19/22/13 18/21/13
f  9/8/14 20/23/14 19/22/14
f  9/8/15 10/10/15 21/24/15 20/23/15
f  10/10/16 13/16/16 22/25/16 21/24/16
f  13/16/17 23/26/17 22/25/17
f  13/16/18 14/17/18 24/27/18 23/26/18
f  14/17/19 15/28/19 24/27/19
f  15/19/20 16/18/20 26/29/20 25/30/20
f  16/18/21 17/20/21 27/31/21 26/29/21
f  17/20/22 18/21/22 28/32/22 27/31/22
f  18/21/23 19/22/23 29/33/23 28/32/23
f  19/22/24 20/23/24 30/34/24 29/33/24
f  20/23/25 21/24/25 31/35/25 30/34/25
f  21/24/26 22/25/26 32/36/26 31/35/26
f  22/25/27 23/26/27 33/37/27 32/36/27
f  23/26/28 24/27/28 34/38/28 33/37/28
f  24/27/29 15/28/29 25/39/29 34/38/29
f  25/30/30 26/29/30 36/40/30 35/41/30
f  26/29/31 27/31/31 37/42/31 36/40/31
f  27/31/32 28/32/32 38/43/32 37/42/32
f  28/32/33 29/33/33 39/44/33 38/43/33
f  29/33/34 30/34/34 40/45/34 39/44/34
f  30/34/35 31/35/35 41/46/35 40/45/35
f  31/35/36 32/36/36 42/47/36 41/46/36
f  32/36/37 33/37/37 43/48/37 42/47/37
f  33/37/38 34/38/38 44/49/38 43/48/38
f  34/38/39 25/39/39 35/50/39 44/49/39
f  35/41/40 36/40/40 46/51/40 45/52/40
f  36/40/41 37/42/41 47/53/41 46/51/41
f  37/42/42 38/43/42 48/54/42 47/53/42
f  38/43/43 39/44/43 49/55/43 48/54/43
f  39/44/44 40/45/44 50/56/44 49/55/44
f  40/45/45 41/46/45 51/57/45 50/56/45
f  41/46/46 42/47/46 52/58/46 51/57/46
f  42/47/47 43/48/47 53/59/47 52/58/47
f  43/48/48 44/49/48 54/60/48 53/59/48
f  44/49/49 35/50/49 45/61/49 54/60/49
f  45/52/50 46/51/50 56/62/50 55/63/50
f  46/51/51 47/53/51 57/64/51 56/62/51
f  47/53/52 48/54/52 58/65/52 57/64/52
f  48/54/53 49/55/53 59/66/53 58/65/53
f  49/55/54 50/56/54 60/67/54 59/66/54
f  50/56/55 51/57/55 61/68/55 60/67/55
f  51/57/56 52/58/56 62/69/56 61/68/56
f  52/58/57 53/59/57 63/70/57 62/69/57
f  53/59/58 54/60/58 64/71/58 63/70/58
f  54/60/59 45/61/59 55/72/59 64/71/59
f  55/63/60 56/62/60 66/73/60 65/74/60
f  56/62/61 57/64/61 67/75/61 66/73/61
f  57/64/62 58/65/62 68/76/62 67/75/62
f  58/65/63 59/66/63 69/77/63 68/76/63
f  59/66/64 60/67/64 70/78/64 69/77/64
f  60/67/65 61/68/65 71/79/65 70/78/65
f  61/68/66 62/69/66 72/80/66 71/79/66
f  62/69/67 63/70/67 73/81/67 72/80/67
f  63/70/68 64/71/68 74/82/68 73/81/68
f  64/71/69 55/72/69 65/83/69 74/82/69
f  1/2/70 6/1/70 75/84/70
f  2/5/71 1/2/71 75/85/71
f  3/7/72 2/5/72 75/86/72
f  4/9/73 3/7/73 75/87/73
f  5/11/74 4/9/74 75/88/74
f  6/13/75 5/11/75 75/89/75
f  65/74/76 66/73/76 76/90/76
f  66/73/77 67/75/77 76/91/77
f  67/75/78 68/76/78 76/92/78
f  68/76/79 69/77/79 76/93/79
f  69/77/80 70/78/80 76/94/80
f  70/78/81 71/79/81 76/95/81
f  71/79/82 72/80/82 76/96/82
f  72/80/83 73/81/83 76/97/83
f  73/81/84 74/82/84 76/98/84
f  74/82/85 65/83/85 76/99/85
