# 
# Wavefront OBJ file
# Converted by the DEEP Exploration Deep Exploration 5.7 5.7.0.4228 Release
# Right Hemisphere, LTD
# http://www.righthemisphere.com/
# 
mtllib sellingmachine08.mtl
# object pCube1
g pCube1
v -3.43716 -2.12560 0.00406
v 3.43705 -2.12560 0.00406
v -3.43716 -2.12560 9.21417
v 3.43705 -2.12560 9.21417
v -3.43716 2.04284 9.21417
v 3.43705 2.04284 9.21417
v -3.43716 2.04285 0.00406
v 3.43705 2.04285 0.00406
# 8 verticies
vt 0.00199 0.00191
vt 0.35677 0.00191
vt 0.35677 0.47724
vt 0.00199 0.47724
vt 0.56161 0.83601
vt 0.56161 0.48123
vt 0.77674 0.48123
vt 0.77674 0.83601
vt 0.36469 0.00191
vt 0.71947 0.00191
vt 0.71947 0.47724
vt 0.36469 0.47724
vt 0.34034 0.83601
vt 0.34034 0.48123
vt 0.55547 0.48123
vt 0.55547 0.83601
vt 0.72720 0.00191
vt 0.94233 0.00191
vt 0.94233 0.47724
vt 0.72720 0.47724
vt 0.78288 0.48123
vt 0.99801 0.48123
vt 0.99801 0.95656
vt 0.78288 0.95656
# 24 texture verticies
vn 0.00000 -1.00000 -0.00000
vn 0.00000 -0.00000 1.00000
vn 0.00000 1.00000 0.00000
vn 0.00000 0.00000 -1.00000
vn 1.00000 0.00000 0.00000
vn -1.00000 -0.00000 0.00000
# 6 normals
usemtl lambert2
f  1/1/1 2/2/1 4/3/1 3/4/1
f  3/5/2 4/6/2 6/7/2 5/8/2
f  5/9/3 6/10/3 8/11/3 7/12/3
f  7/13/4 8/14/4 2/15/4 1/16/4
f  2/17/5 8/18/5 6/19/5 4/20/5
f  7/21/6 1/22/6 3/23/6 5/24/6
