# 
# Wavefront OBJ file
# Converted by the DEEP Exploration Deep Exploration 5.7 5.7.0.4228 Release
# Right Hemisphere, LTD
# http://www.righthemisphere.com/
# 
mtllib whitestone.mtl
# object VMtl01
g VMtl01
v 28.20196 23.36540 -29.74375
v 35.57947 17.09240 -34.83986
v 37.18922 17.66131 -31.37930
v 39.62080 17.63678 -28.91455
v 40.54486 14.68719 -27.76752
v 36.06857 11.79412 -34.71218
v 23.89290 23.36540 -36.77221
v 31.22811 13.23029 -42.13193
v 32.19268 15.58928 -38.95878
v 33.67765 14.47756 -39.00333
v 30.93632 16.29929 -44.56794
v 31.75502 16.36176 -41.11772
v 28.38669 18.81583 -45.39751
v 23.75719 17.60258 -45.58722
v 24.18717 22.02687 -39.25472
v 31.68818 17.76901 -37.09220
v 31.71381 17.05871 -38.60955
v 26.54236 16.70288 -47.09734
v 30.65338 17.20160 -40.55355
v 34.21717 15.87411 -36.04001
v 29.85754 17.36105 -45.74060
v 29.58537 16.54348 -46.36465
v 35.97639 2.12275 5.86710
v 37.55700 0.33181 1.82989
v 42.83625 6.04467 0.71656
v 34.55537 3.62877 7.93783
v 34.45385 1.46819 8.58421
v 36.62268 8.52734 7.78315
v 38.57638 10.25401 2.81764
v 42.01451 6.23457 -9.56723
v 43.35193 8.97167 -6.28485
v 42.60125 5.81744 -2.19671
v 44.01768 9.93429 -6.46425
v 42.34776 6.97592 -0.48561
v 42.24185 10.75460 -4.42048
v 37.03946 6.30838 -31.45831
v 31.37021 0.30586 -35.79962
v 35.82760 -2.16428 6.22384
v 33.58197 -7.86158 5.05977
v 37.90334 -6.00491 -6.40782
v 26.67773 -3.90258 -27.96071
v 35.75030 -6.87345 -27.80488
v 35.46597 -3.39882 -31.31252
v 32.70401 -16.24497 -2.46968
v 28.01386 -22.03726 -11.47615
v 31.88874 -19.46270 -15.46300
v -39.85468 23.36540 37.49651
v -33.53591 23.36540 43.12167
v -22.62376 23.36540 42.13456
v -25.70386 23.36540 44.45871
v -43.54393 14.15948 39.40239
v -45.10344 18.75429 38.67566
v -25.11054 20.76428 47.09734
v -28.44897 18.31905 46.65035
v -38.97115 15.11614 42.77230
v -32.83767 20.57111 46.65382
v -42.10905 19.82764 41.94278
v -43.97129 18.51111 28.68326
v -43.71315 19.66992 30.43814
v -24.20750 23.36551 21.07668
v -35.70106 23.36540 19.58090
v -39.15345 19.68502 17.36539
v -38.78429 21.12961 19.19437
v -39.42925 15.93887 17.92179
v -37.01319 12.54330 17.76599
v -37.86058 23.36540 4.85555
v -37.15945 23.36540 10.78470
v -37.94506 19.87018 5.98667
v -37.02242 17.78663 2.61074
v -36.59929 14.70420 8.18411
v -24.58988 23.36540 -11.03472
v -31.64069 23.36540 -7.65052
v -36.31641 23.36540 -1.57216
v -32.00550 21.33067 -6.58316
v -41.35754 11.50031 38.94394
v -40.16295 6.34872 37.92125
v -36.27982 8.51079 40.69808
v -36.21289 2.15083 37.91813
v -42.00872 8.72314 34.63681
v -40.89984 5.42331 30.74306
v -34.54942 1.38502 20.85472
v -35.23710 6.67077 18.42500
v -32.05739 7.47460 11.43360
v -30.70847 -3.87383 35.97112
v -32.10180 -7.02571 30.67237
v -22.72780 -11.33147 24.36867
v -3.30484 22.72322 36.69072
v -8.88192 23.36540 41.80455
v -17.26462 23.36540 41.80652
v -14.60932 23.36540 43.28083
v -11.39190 23.36540 42.77756
v -15.27100 15.49019 42.51941
v -19.58713 20.20271 45.42122
v -15.23105 21.14835 44.45364
v -18.57346 23.36540 -18.29356
v -15.43802 19.13548 -18.00473
v -10.24632 23.36540 -24.97097
v -4.59776 22.20511 -29.03457
v -8.11536 3.67676 34.88938
v -9.09335 8.83572 -14.17678
v -20.76934 -0.06582 3.77349
v -20.63684 -3.81892 9.73347
v -8.61718 -15.85129 14.81631
v -2.16593 -13.29797 4.07740
v -1.72954 -15.99872 9.68551
v 17.60968 18.84554 24.53115
v 12.67321 20.36071 29.15743
v 12.31997 23.36540 14.07234
v 12.33981 23.36540 23.19283
v 5.62069 23.36540 -28.23581
v 1.11292 23.36540 -30.01077
v 13.39779 23.36540 -33.73687
v 0.81629 21.81628 -32.01437
v 3.90078 19.26857 -33.26472
v 19.37777 19.01324 -41.27921
v 11.86342 19.28494 -38.50504
v 15.48005 18.03908 -40.21031
v 16.03213 16.71560 -39.91172
v 18.18398 -6.74539 13.12871
v 3.92347 -10.09433 16.96973
v 12.98724 -13.96896 9.43060
v 11.08107 -18.42734 6.13330
v 7.11882 -19.35976 4.32692
v 15.82431 -22.63268 -0.11805
v 21.11571 -23.36551 -3.12029
v 24.19027 12.61826 17.12004
v 36.59212 23.36540 -20.58250
v 44.01993 17.10677 -22.84778
v 45.10344 16.99041 -18.22183
v 41.98255 12.80633 -22.64330
# 130 verticies
vt 0.90497 0.74341
vt 0.89962 0.77473
vt 0.87738 0.80572
vt 0.25369 0.85250
vt 0.26027 0.85759
vt 0.24433 0.85883
vt 0.22195 0.84159
vt 0.94372 0.57568
vt 0.90351 0.59480
vt 0.93140 0.55433
vt 0.24206 0.55415
vt 0.22358 0.54277
vt 0.71415 0.95721
vt 0.74933 0.94874
vt 0.21156 0.57100
vt 0.16131 0.54378
vt 0.15826 0.56425
vt 0.09937 0.55019
vt 0.04468 0.54887
vt 0.08810 0.62173
vt 0.15912 0.58281
vt 0.19377 0.61051
vt 0.14221 0.64380
vt 0.15551 0.61491
vt 0.08848 0.68977
vt 0.17099 0.46697
vt 0.05887 0.43359
vt 0.14270 0.42749
vt 0.18137 0.49134
vt 0.06365 0.47941
vt 0.29979 0.87079
vt 0.29041 0.90245
vt 0.28846 0.87902
vt 0.30333 0.88260
vt 0.04232 0.34402
vt 0.23216 0.83185
vt 0.22097 0.83633
vt 0.91246 0.54550
vt 0.89897 0.53216
vt 0.32597 0.03129
vt 0.95145 0.68443
vt 0.96664 0.64321
vt 0.92278 0.72811
vt 0.91593 0.74503
vt 0.84084 0.85140
vt 0.15765 0.02530
vt 0.80111 0.88441
vt 0.78259 0.92309
vt 0.29238 0.53478
vt 0.23570 0.65173
vt 0.20308 0.67224
vt 0.87409 0.37419
vt 0.37840 0.27714
vt 0.32484 0.30596
vt 0.34833 0.28021
vt 0.40888 0.41180
vt 0.28588 0.37053
vt 0.27177 0.83458
vt 0.86576 0.50803
vt 0.85337 0.54878
vt 0.95203 0.57554
vt 0.94197 0.61844
vt 0.38620 0.03859
vt 0.41248 0.12821
vt 0.32898 0.03852
vt 0.38694 0.15121
vt 0.65610 0.07458
vt 0.39421 0.25033
vt 0.99021 0.61919
vt 0.53551 0.96815
vt 0.47095 0.28226
vt 0.51193 0.79824
vt 0.50661 0.81201
vt 0.49744 0.83307
vt 0.39658 0.29050
vt 0.83360 0.22799
vt 0.74008 0.16270
vt 0.72365 0.13368
vt 0.08498 0.90920
vt 0.58855 0.05339
vt 0.00260 0.80021
vt 0.63356 0.94536
vt 0.68170 0.95336
vt 0.15130 0.53588
vt 0.08976 0.54386
vt 0.42047 0.27819
vt 0.45386 0.30801
vt 0.43921 0.34411
vt 0.43885 0.37887
vt 0.04881 0.61667
vt 0.82181 0.29678
vt 0.76440 0.21046
vt 0.98918 0.59379
vt 0.92536 0.67601
vt 0.89525 0.71868
vt 0.04321 0.58851
vt 0.04070 0.57398
vt 0.79373 0.25900
vt 0.08418 0.85615
vt 0.06637 0.82616
vt 0.10438 0.81035
vt 0.41171 0.05757
vt 0.42504 0.05076
vt 0.01243 0.80154
vt 0.99105 0.58572
vt 0.19219 0.08159
vt 0.76304 0.26139
vt 0.66371 0.68193
vt 0.61379 0.68182
vt 0.60647 0.65291
vt 0.84045 0.50208
vt 0.96267 0.58135
vt 0.95556 0.61683
vt 0.03132 0.80120
vt 0.49741 0.89052
vt 0.42798 0.04312
vt 0.51013 0.87362
vt 0.53992 0.76764
vt 0.58115 0.67999
vt 0.64703 0.61681
vt 0.41696 0.04468
vt 0.13242 0.82063
vt 0.06679 0.60369
vt 0.51192 0.84422
vt 0.50385 0.82966
vt 0.22128 0.92344
vt 0.50472 0.93348
vt 0.20399 0.85655
vt 0.26636 0.88881
vt 0.62537 0.88231
# 130 texture verticies
vn -0.09256 0.79167 -0.60390
vn -0.25611 0.77896 -0.57239
vn -0.25621 0.77516 -0.57748
vn 0.91001 0.36407 0.19834
vn 0.83025 0.52242 0.19435
vn 0.94980 -0.31141 -0.03015
vn 0.97884 -0.16538 0.12052
vn 0.51920 0.76973 -0.37142
vn 0.31238 0.91711 -0.24766
vn 0.66362 0.42774 -0.61372
vn -0.82753 -0.40196 -0.39195
vn -0.99542 -0.04732 -0.08304
vn -0.99288 -0.01427 -0.11825
vn -0.86336 -0.18312 -0.47019
vn -0.86969 -0.43937 -0.22494
vn -0.96081 0.17279 -0.21678
vn -0.94126 0.01923 -0.33713
vn -0.95760 0.06968 -0.27956
vn -0.95954 -0.28013 -0.02844
vn -0.89344 -0.44032 -0.08876
vn -0.84879 -0.42004 -0.32113
vn -0.80490 -0.56429 -0.18359
vn -0.76633 -0.53933 -0.34909
vn -0.71659 -0.53029 -0.45308
vn -0.75978 -0.45944 -0.46006
vn -0.63374 -0.76094 0.13910
vn 0.19158 -0.64940 0.73592
vn 0.38293 -0.52932 0.75709
vn 0.38791 -0.35519 0.85051
vn 0.17354 -0.68216 0.71031
vn 0.65099 -0.65389 0.38554
vn 0.64102 -0.00501 0.76751
vn 0.86970 -0.14395 0.47213
vn 0.78283 -0.30065 0.54479
vn 0.90972 0.07919 0.40759
vn 0.56805 -0.25234 0.78335
vn 0.73978 -0.52604 0.41953
vn 0.71553 0.58038 0.38881
vn 0.64811 -0.31939 0.69133
vn 0.66234 0.53562 -0.52384
vn 0.44179 0.83208 -0.33535
vn -0.32106 0.29831 -0.89885
vn -0.26910 0.68174 -0.68031
vn -0.34836 0.65283 -0.67265
vn -0.50042 -0.49153 -0.71272
vn -0.53393 -0.42161 -0.73291
vn -0.48463 -0.16517 -0.85898
vn -0.60866 -0.49359 -0.62122
vn -0.51865 -0.54110 -0.66198
vn -0.52356 -0.58754 -0.61699
vn -0.56869 -0.25274 -0.78276
vn -0.60971 -0.27972 -0.74163
vn -0.63445 -0.29763 -0.71337
vn -0.57294 -0.64672 -0.50348
vn -0.62228 -0.62660 -0.46918
vn -0.57793 -0.66714 -0.47002
vn 0.14471 -0.33714 0.93027
vn 0.36488 -0.33730 0.86781
vn 0.25591 -0.32601 0.91007
vn -0.00119 -0.58030 0.81440
vn 0.40508 -0.45778 0.79142
vn 0.66375 0.64121 0.38509
vn 0.52554 0.80387 -0.27858
vn 0.57750 0.80631 0.12792
vn 0.67762 0.61245 -0.40711
vn 0.54000 0.76919 -0.34167
vn -0.49813 -0.47141 -0.72776
vn -0.18500 -0.67556 -0.71372
vn -0.45006 -0.48276 -0.75126
vn -0.38978 -0.66794 -0.63398
vn 0.12512 0.27896 0.95212
vn 0.44096 -0.35294 0.82522
vn 0.84713 -0.52985 0.04034
vn 0.57273 -0.79208 0.21116
vn -0.30621 0.69928 -0.64594
vn -0.57079 0.40656 -0.71338
vn -0.18528 -0.28917 -0.93917
vn -0.40327 -0.36733 -0.83812
vn -0.57566 0.79225 0.20240
vn -0.67708 0.73569 0.01782
vn -0.45883 0.76038 0.45967
vn 0.48015 -0.31524 0.81859
vn 0.43697 -0.24362 0.86585
vn 0.39639 -0.29948 0.86787
vn -0.08879 -0.35514 0.93059
vn 0.16833 -0.75448 0.63437
vn 0.23999 -0.73115 0.63861
vn 0.12488 -0.77676 0.61729
vn 0.38517 -0.72832 0.56674
vn 0.13843 -0.69797 -0.70262
vn -0.10536 -0.72566 -0.67994
vn 0.17340 -0.52365 -0.83410
vn -0.38655 0.92183 -0.02835
vn -0.91224 0.40957 0.00900
vn -0.75671 0.63860 -0.13996
vn -0.69468 0.70798 -0.12719
vn -0.23891 -0.22072 0.94563
vn -0.40325 -0.35195 0.84470
vn -0.31418 -0.38425 0.86813
vn -0.25719 -0.38931 0.88447
vn -0.42482 -0.32312 0.84565
vn 0.26610 -0.78756 0.55582
vn -0.01685 -0.74982 0.66143
vn 0.05213 0.65133 -0.75700
vn 0.03847 0.60576 -0.79472
vn -0.29916 0.77629 -0.55487
vn -0.35897 0.77161 -0.52513
vn -0.36170 0.77954 -0.51135
vn -0.61798 -0.43619 0.65409
vn -0.60263 -0.37490 0.70447
vn -0.69334 -0.64369 0.32394
vn 0.18760 -0.82920 0.52654
vn 0.87337 -0.22083 -0.43412
vn 0.68124 -0.12127 -0.72195
vn 0.76846 -0.22397 -0.59942
vn 0.79426 -0.00725 -0.60754
vn 0.88052 0.04327 -0.47203
vn 0.80245 -0.15947 -0.57502
vn 0.87735 -0.21888 -0.42703
vn 0.78781 -0.25501 -0.56064
vn 0.89668 0.07432 -0.43640
vn 0.27223 0.49484 -0.82524
vn 0.31481 0.50745 -0.80211
vn -0.39397 -0.61927 -0.67918
vn -0.49769 -0.58000 -0.64490
vn -0.42597 -0.68687 -0.58887
vn -0.46260 -0.72291 -0.51323
vn -0.46350 -0.77406 -0.43127
vn -0.50088 -0.78242 -0.37006
vn -0.49968 -0.74482 -0.44222
vn 0.60689 0.75392 0.25156
vn 0.32531 0.92998 0.17118
vn 0.63779 0.76230 0.11011
vn 0.62709 0.73703 0.25207
vn 0.68400 0.71419 -0.14862
vn 0.57483 0.80198 -0.16248
vn 0.66934 0.74142 -0.04781
vn 0.64239 0.76337 -0.06786
vn -0.35733 -0.83064 -0.42703
vn -0.41159 -0.83322 -0.36924
vn -0.57143 -0.16524 0.80385
vn 0.20873 0.76347 0.61119
vn 0.11579 0.77047 0.62688
vn 0.10661 0.71997 0.68576
vn 0.63768 0.13199 -0.75891
vn 0.51719 0.23297 -0.82355
vn 0.64947 0.69282 -0.31335
vn 0.79547 0.51765 -0.31505
vn -0.84973 -0.48255 0.21237
vn -0.70903 -0.13106 0.69290
vn 0.13068 0.78585 0.60445
vn -0.06263 0.63577 0.76933
vn 0.13300 0.98121 0.13980
vn 0.44292 0.81041 0.38349
vn 0.62842 0.75128 0.20165
vn 0.73421 -0.21596 -0.64366
vn 0.82305 0.34456 -0.45151
vn 0.61976 0.77032 0.14998
vn 0.59456 0.78770 0.16131
vn 0.95606 0.22771 -0.18466
vn 0.91325 -0.29147 -0.28463
vn -0.94814 -0.31354 0.05223
vn -0.89364 -0.40176 0.20000
vn -0.18073 0.72955 0.65962
vn -0.19650 0.67213 0.71388
vn -0.14477 0.49409 0.85727
vn 0.61350 0.64953 0.44914
vn 0.82149 -0.40813 -0.39823
vn 0.94383 -0.32106 0.07816
vn 0.99025 -0.08999 -0.10633
vn 0.97693 -0.19348 -0.09045
vn -0.29445 0.76585 0.57164
vn 0.72315 0.56072 0.40329
vn 0.89525 -0.44221 -0.05452
vn 0.89158 -0.41030 -0.19170
vn 0.88295 -0.46935 -0.01039
vn 0.76822 -0.59274 0.24186
vn 0.88644 -0.37332 0.27360
vn -0.53083 -0.34106 -0.77582
vn -0.50073 -0.41040 -0.76213
vn -0.54209 0.17976 -0.82087
vn 0.13936 0.43222 0.89093
vn 0.51067 -0.27363 0.81507
vn 0.47692 -0.31193 0.82174
vn 0.53443 -0.39671 0.74633
vn 0.51568 -0.33624 0.78805
vn -0.00000 1.00000 -0.00000
vn -0.00000 1.00000 -0.00000
vn 0.00000 1.00000 0.00000
vn 0.00439 0.99999 -0.00040
vn -0.17552 0.88345 -0.43441
vn 0.00000 1.00000 0.00000
vn -0.00000 1.00000 -0.00000
vn -0.00000 1.00000 -0.00000
vn 0.00000 1.00000 0.00000
vn -0.00001 1.00000 -0.00000
vn -0.00001 1.00000 -0.00000
vn -0.00001 1.00000 0.00000
vn 0.01368 0.99986 -0.01011
vn -0.00000 1.00000 0.00000
vn 0.46042 0.63966 -0.61550
vn 0.96947 -0.08914 -0.22843
vn -0.25879 0.81095 -0.52477
vn 0.09846 0.76529 -0.63611
vn 0.27110 0.71932 -0.63960
vn 0.29916 0.68713 -0.66209
# 206 normals
usemtl VMtl01
f  111/1/1 98/2/2 97/3/3
f  34/4/4 25/5/5 32/6/6
f  31/7/7 34/4/4 32/6/6
f  16/8/8 1/9/9 2/10/10
f  69/11/11 68/12/12 66/13/13
f  66/13/13 73/14/14 69/11/11
f  70/15/15 62/16/16 68/12/12
f  70/15/15 68/12/12 69/11/11
f  64/17/17 58/18/18 62/16/16
f  62/16/16 70/15/15 64/17/17
f  52/19/19 58/18/18 80/20/20
f  65/21/21 58/18/18 64/17/22
f  64/17/22 70/15/15 65/21/21
f  70/15/15 83/22/23 65/21/21
f  80/20/20 65/21/21 81/23/24
f  65/21/21 82/24/25 81/23/24
f  80/20/20 58/18/18 65/21/21
f  83/22/23 82/24/25 65/21/21
f  81/23/24 85/25/26 80/20/20
f  121/26/27 39/27/28 119/28/29
f  39/27/28 122/29/30 44/30/31
f  26/31/32 38/32/33 23/33/34
f  38/32/33 26/31/32 27/34/35
f  28/35/36 23/33/34 25/5/37
f  23/33/34 28/35/36 26/31/32
f  31/7/7 35/36/38 34/4/4
f  35/36/39 31/7/39 33/37/39
f  3/38/40 1/9/9 4/39/41
f  117/40/42 116/41/43 115/42/44
f  114/43/45 98/2/46 113/44/47
f  95/45/48 97/3/49 96/46/50
f  96/46/50 71/47/51 95/45/48
f  72/48/52 74/49/53 73/14/14
f  74/49/53 72/48/52 71/47/51
f  73/14/14 74/49/53 69/11/11
f  69/11/11 101/50/54 70/15/15
f  83/22/23 70/15/15 101/50/54
f  101/50/54 82/24/25 83/22/23
f  101/50/54 102/51/55 82/24/25
f  102/51/55 81/23/24 82/24/25
f  86/52/56 85/25/26 81/23/24
f  53/53/57 92/54/58 93/55/59
f  53/53/57 84/56/60 92/54/58
f  84/56/60 99/57/61 92/54/58
f  34/4/4 35/36/38 29/58/62
f  1/9/9 128/59/63 4/39/41
f  128/59/63 1/9/9 127/60/64
f  3/38/40 2/10/10 1/9/9
f  17/61/65 7/62/66 1/9/9
f  18/63/67 37/64/68 118/65/69
f  41/66/70 114/43/45 118/65/69
f  118/65/69 37/64/68 41/66/70
f  28/35/36 119/28/29 26/31/32
f  26/31/32 119/28/29 27/34/71
f  39/27/28 27/34/72 119/28/29
f  27/34/72 39/27/28 38/32/33
f  46/67/73 44/30/31 45/68/74
f  115/42/44 14/69/75 118/65/76
f  115/42/77 118/65/69 117/40/78
f  47/70/79 52/19/80 57/71/81
f  92/54/58 88/72/82 91/73/83
f  94/74/84 92/54/58 91/73/83
f  92/54/58 94/74/84 93/55/59
f  53/53/57 54/75/85 84/56/60
f  86/52/86 99/57/61 84/56/60
f  86/52/86 120/76/87 99/57/61
f  120/76/87 119/28/29 99/57/61
f  121/26/27 119/28/29 120/76/87
f  122/29/30 39/27/28 121/26/27
f  124/77/88 125/78/89 122/29/30
f  44/30/31 122/29/30 125/78/89
f  44/30/31 125/78/89 45/68/74
f  43/79/90 42/80/91 37/64/68
f  22/81/92 37/64/68 18/63/92
f  61/82/93 67/83/94 63/84/95
f  59/85/96 61/82/93 63/84/95
f  53/53/57 56/86/97 54/75/85
f  55/87/98 54/75/85 56/86/97
f  54/75/85 55/87/98 77/88/99
f  78/89/100 77/88/99 76/90/101
f  120/76/87 86/52/86 103/91/102
f  120/76/87 123/92/103 121/26/27
f  121/26/27 123/92/103 122/29/30
f  122/29/30 123/92/103 124/77/88
f  14/69/75 13/93/104 18/63/105
f  112/94/106 116/41/43 114/43/107
f  112/94/106 114/43/107 110/95/108
f  52/19/80 47/70/79 61/82/93
f  61/82/93 59/85/96 52/19/80
f  75/96/109 55/87/98 51/97/110
f  85/25/26 84/56/60 78/89/111
f  84/56/60 85/25/26 86/52/86
f  105/98/112 120/76/87 103/91/102
f  123/92/103 120/76/87 105/98/112
f  36/99/113 43/79/114 37/64/115
f  36/99/113 6/100/116 5/101/117
f  37/64/115 22/81/118 8/102/119
f  37/64/115 8/102/119 10/103/120
f  37/64/115 10/103/120 6/100/116
f  6/100/116 36/99/113 37/64/115
f  8/102/119 22/81/118 11/104/121
f  22/81/122 18/63/105 13/93/104
f  22/81/122 13/93/104 21/105/123
f  46/67/124 114/43/45 41/66/70
f  100/106/125 46/67/124 45/68/126
f  101/50/54 100/106/125 124/77/127
f  124/77/127 100/106/125 45/68/126
f  104/107/128 124/77/127 123/92/129
f  104/107/128 101/50/54 124/77/127
f  101/50/54 104/107/128 103/91/130
f  103/91/130 86/52/56 81/23/24
f  77/88/99 84/56/60 54/75/85
f  78/89/100 84/56/60 77/88/99
f  108/108/131 109/109/132 106/110/133
f  127/60/64 129/111/134 128/59/63
f  19/112/135 15/113/136 17/61/65
f  7/62/66 17/61/65 15/113/136
f  16/8/8 17/61/65 1/9/9
f  12/114/137 13/93/138 15/113/136
f  42/80/91 41/66/70 37/64/68
f  42/80/91 46/67/124 41/66/70
f  124/77/127 45/68/126 125/78/139
f  104/107/128 123/92/129 105/98/140
f  75/96/109 76/90/101 77/88/99
f  77/88/99 55/87/98 75/96/109
f  55/87/98 56/86/97 57/71/141
f  55/87/98 57/71/141 51/97/110
f  93/55/142 50/115/143 53/53/144
f  20/116/145 16/8/146 2/10/10
f  20/116/147 17/61/65 16/8/8
f  12/114/137 15/113/136 19/112/135
f  21/105/148 13/93/138 12/114/137
f  104/107/128 105/98/140 103/91/130
f  80/20/20 85/25/26 78/89/111
f  80/20/20 78/89/111 76/90/149
f  51/97/110 57/71/141 52/19/150
f  49/117/151 50/115/143 93/55/142
f  49/117/151 93/55/142 94/74/152
f  87/118/153 107/119/154 109/109/132
f  106/110/133 109/109/132 107/119/154
f  126/120/155 108/108/131 106/110/133
f  127/60/64 108/108/131 29/58/62
f  5/101/117 3/38/40 4/39/156
f  3/38/40 5/101/117 2/10/10
f  6/100/116 17/61/65 20/116/145
f  6/100/116 20/116/145 2/10/10
f  6/100/116 2/10/10 5/101/117
f  9/121/157 19/112/135 17/61/65
f  17/61/65 6/100/116 9/121/157
f  9/121/158 6/100/159 10/103/159
f  12/114/137 19/112/135 9/121/158
f  21/105/148 12/114/137 11/104/121
f  11/104/121 22/81/118 21/105/148
f  4/39/160 130/122/161 5/101/117
f  36/99/113 5/101/117 130/122/161
f  51/97/162 52/19/19 79/123/163
f  56/86/164 53/53/144 50/115/143
f  89/124/165 94/74/152 90/125/166
f  28/35/167 108/108/131 126/120/155
f  108/108/131 28/35/167 29/58/62
f  127/60/64 29/58/62 35/36/38
f  127/60/64 35/36/38 129/111/134
f  130/122/161 4/39/156 128/59/168
f  130/122/161 40/126/169 36/99/113
f  40/126/169 43/79/170 36/99/113
f  42/80/171 43/79/170 40/126/169
f  42/80/171 40/126/169 46/67/73
f  103/91/130 102/51/55 101/50/54
f  81/23/24 102/51/55 103/91/130
f  56/86/164 50/115/143 48/127/172
f  49/117/151 94/74/152 89/124/165
f  33/37/173 129/111/134 35/36/38
f  25/5/5 34/4/4 29/58/62
f  25/5/5 29/58/62 28/35/167
f  30/128/174 129/111/175 33/37/176
f  130/122/161 128/59/168 129/111/175
f  129/111/175 30/128/174 130/122/161
f  30/128/174 40/126/169 130/122/161
f  24/129/177 30/128/174 32/6/6
f  24/129/177 32/6/6 25/5/37
f  30/128/174 24/129/177 40/126/169
f  38/32/33 39/27/178 40/126/169
f  44/30/31 40/126/169 39/27/178
f  46/67/73 40/126/169 44/30/31
f  114/43/45 46/67/124 100/106/125
f  101/50/54 97/3/49 100/106/125
f  100/106/125 97/3/49 98/2/46
f  114/43/45 100/106/125 98/2/46
f  101/50/54 96/46/50 97/3/49
f  69/11/11 96/46/50 101/50/54
f  96/46/50 69/11/11 74/49/53
f  57/71/81 48/127/172 47/70/79
f  48/127/172 57/71/81 56/86/164
f  18/63/67 118/65/69 14/69/179
f  114/43/45 116/41/180 117/40/78
f  114/43/45 117/40/78 118/65/69
f  71/47/51 96/46/181 74/49/53
f  91/73/182 90/125/166 94/74/152
f  92/54/58 87/118/183 88/72/82
f  99/57/61 107/119/184 87/118/183
f  87/118/183 92/54/58 99/57/61
f  99/57/61 106/110/185 107/119/184
f  106/110/185 99/57/61 126/120/186
f  119/28/29 28/35/36 126/120/186
f  99/57/61 119/28/29 126/120/186
f  97/3/187 110/95/188 111/1/189
f  110/95/188 97/3/187 60/130/190
f  112/94/189 1/9/9 7/62/191
f  112/94/189 110/95/188 1/9/9
f  110/95/188 60/130/190 1/9/9
f  127/60/192 1/9/9 60/130/190
f  71/47/193 60/130/190 97/3/187
f  97/3/187 95/45/189 71/47/193
f  72/48/194 60/130/190 71/47/193
f  108/108/195 127/60/192 60/130/190
f  73/14/196 60/130/190 72/48/194
f  60/130/190 73/14/196 66/13/197
f  60/130/190 66/13/197 67/83/198
f  67/83/198 61/82/93 60/130/190
f  108/108/195 60/130/190 109/109/132
f  109/109/132 60/130/190 87/118/153
f  87/118/153 60/130/190 88/72/199
f  60/130/190 47/70/200 88/72/199
f  47/70/200 60/130/190 61/82/93
f  89/124/189 88/72/199 47/70/200
f  48/127/189 49/117/189 47/70/200
f  49/117/189 89/124/189 47/70/200
f  49/117/189 48/127/189 50/115/189
f  88/72/199 89/124/189 90/125/189
f  90/125/189 91/73/189 88/72/199
f  30/128/174 31/7/7 32/6/6
f  8/102/201 9/121/157 10/103/201
f  11/104/121 12/114/202 8/102/119
f  8/102/119 12/114/202 9/121/157
f  13/93/104 14/69/75 15/113/203
f  115/42/44 15/113/203 14/69/75
f  15/113/203 115/42/44 7/62/191
f  7/62/191 115/42/44 116/41/43
f  116/41/43 112/94/106 7/62/191
f  98/2/2 111/1/1 113/44/204
f  79/123/163 75/96/109 51/97/110
f  76/90/149 75/96/109 79/123/163
f  31/7/7 30/128/174 33/37/176
f  113/44/204 111/1/1 110/95/205
f  110/95/205 114/43/206 113/44/204
f  68/12/12 67/83/94 66/13/13
f  62/16/16 63/84/95 67/83/94
f  62/16/16 67/83/94 68/12/12
f  58/18/18 59/85/96 63/84/95
f  62/16/16 58/18/18 63/84/95
f  58/18/18 52/19/80 59/85/96
f  52/19/19 80/20/20 79/123/163
f  79/123/163 80/20/20 76/90/149
f  38/32/33 40/126/169 23/33/34
f  23/33/34 24/129/177 25/5/37
f  23/33/34 40/126/169 24/129/177
