# 
# Wavefront OBJ file
# Converted by the DEEP Exploration Deep Exploration 5.7 5.7.0.4228 Release
# Right Hemisphere, LTD
# http://www.righthemisphere.com/
# 
mtllib box.mtl
# object object
g object
v -0.50000 -0.50000 -0.50000
v -0.50000 0.50000 -0.50000
v -0.50000 0.50000 0.50000
v -0.50000 -0.50000 0.50000
v 0.50000 -0.50000 -0.50000
v 0.50000 0.50000 -0.50000
v 0.50000 0.50000 0.50000
v 0.50000 -0.50000 0.50000
# 8 verticies
vn -1.00000 0.00000 0.00000
vn 0.00000 0.00000 -1.00000
vn 0.00000 1.00000 0.00000
vn 0.00000 0.00000 1.00000
vn 0.00000 -1.00000 0.00000
vn 1.00000 0.00000 0.00000
# 6 normals
usemtl Default
f  4//1 3//1 2//1 1//1
f  2//2 6//2 5//2 1//2
f  3//3 7//3 6//3 2//3
f  8//4 7//4 3//4 4//4
f  5//5 8//5 4//5 1//5
f  6//6 7//6 8//6 5//6
