# 
# Wavefront OBJ file
# Converted by the DEEP Exploration Deep Exploration 5.7 5.7.0.4228 Release
# Right Hemisphere, LTD
# http://www.righthemisphere.com/
# 
mtllib Crate_1.mtl
# object RootFrame
g RootFrame
v 1.00000 -1.00000 -1.00000
v 1.00000 1.00000 -1.00000
v -1.00000 1.00000 -1.00000
v -1.00000 -1.00000 -1.00000
v 1.00000 -1.00000 1.00000
v -1.00000 -1.00000 1.00000
v -1.00000 1.00000 1.00000
v 1.00000 1.00000 1.00000
# 8 verticies
vt 0.88553 1.88553
vt 0.88553 1.11447
vt 0.11447 1.11447
vt 0.11447 1.88553
# 4 texture verticies
vn -0.57735 -0.57735 -0.57735
vn -0.57735 0.57735 -0.57735
vn 0.57735 0.57735 -0.57735
vn 0.57735 -0.57735 -0.57735
vn 0.57735 0.57735 0.57735
vn -0.57735 0.57735 0.57735
vn -0.57735 -0.57735 0.57735
vn 0.57735 -0.57735 0.57735
# 8 normals
usemtl Mat1
f  4/1/1 3/2/2 2/3/3 1/4/4
f  8/1/5 7/2/6 6/3/7 5/4/8
f  2/1/3 8/2/5 5/3/8 1/4/4
f  3/1/2 7/2/6 8/3/5 2/4/3
f  4/1/1 6/2/7 7/3/6 3/4/2
f  6/1/7 4/2/1 1/3/4 5/4/8
# object Cube001
g Cube001
v -0.85869 -0.84727 -1.14493
v -1.14493 -0.84727 -1.14493
v -1.14493 -1.14493 -1.14493
v -0.85869 -1.14493 -1.14493
v -1.14493 -0.84727 1.14493
v -0.85869 -0.84727 1.14493
v -0.85869 -1.14493 1.14493
v -1.14493 -1.14493 1.14493
v 0.87450 -1.14493 -1.14493
v 1.14493 -1.14493 -1.14493
v 1.14493 -0.84727 -1.14493
v 0.87450 -0.84727 -1.14493
v 0.87450 -0.84727 1.14493
v 0.87450 -1.14493 1.14493
v 1.14493 -0.84727 1.14493
v 1.14493 -1.14493 1.14493
v -1.14493 1.14493 -1.14493
v -1.14493 0.85611 -1.14493
v -0.85869 0.85611 -1.14493
v -0.85869 1.14493 -1.14493
v -0.85869 1.14493 1.14493
v -0.85869 0.85611 1.14493
v -1.14493 0.85611 1.14493
v -1.14493 1.14493 1.14493
v 0.87450 1.14493 -1.14493
v 0.87450 0.85611 -1.14493
v 1.14493 0.85611 -1.14493
v 1.14493 1.14493 -1.14493
v 0.87450 1.14493 1.14493
v 0.87450 0.85611 1.14493
v 1.14493 1.14493 1.14493
v 1.14493 0.85611 1.14493
v 1.14493 -0.84727 0.83584
v 1.14493 -1.14493 0.83584
v -1.14493 -1.14493 0.83584
v -1.14493 -0.84727 0.83584
v -1.14493 1.14493 0.83584
v -0.85869 1.14493 0.83584
v -0.85869 -1.14493 0.83584
v 0.87450 1.14493 0.83584
v 1.14493 1.14493 0.83584
v 0.87450 -1.14493 0.83584
v 1.14493 0.85611 0.83584
v -1.14493 0.85611 0.83584
v 1.14493 -0.84727 -0.80825
v 1.14493 -1.14493 -0.80825
v -1.14493 -1.14493 -0.80825
v -1.14493 -0.84727 -0.80825
v -1.14493 1.14493 -0.80825
v -0.85869 1.14493 -0.80825
v -0.85869 -1.14493 -0.80825
v 0.87450 1.14493 -0.80825
v 1.14493 1.14493 -0.80825
v 0.87450 -1.14493 -0.80825
v 1.14493 0.85611 -0.80825
v -1.14493 0.85611 -0.80825
# 56 verticies
vt 0.99216 1.88076
vt 0.99216 2.00567
vt 1.12207 2.00567
vt 1.12207 1.88076
vt 2.99079 2.00567
vt 2.86588 2.00567
vt 2.86588 2.13558
vt 2.99079 2.13558
vt 1.12207 1.12440
vt 1.12207 1.00636
vt 0.99216 1.00636
vt 0.99216 1.12440
vt 2.10952 2.00567
vt 2.10952 2.13559
vt 1.99148 2.00568
vt 1.99148 2.13559
vt 1.99148 1.88076
vt 1.86541 1.88076
vt 1.86541 2.00567
vt 1.99148 2.00567
vt 2.99079 3.00499
vt 2.99079 2.87893
vt 2.86588 2.87893
vt 2.86588 3.00499
vt 1.99148 1.00636
vt 1.86541 1.00636
vt 1.86541 1.12440
vt 1.99148 1.12440
vt 2.10952 2.87893
vt 2.10952 3.00499
vt 1.99148 2.87893
vt 1.99148 3.00499
vt -0.00715 2.00567
vt -0.00715 2.14058
vt 0.12276 2.14058
vt 0.12276 2.00567
vt 1.12207 3.00499
vt 1.12207 2.87008
vt 0.99216 2.87008
vt 0.99216 3.00499
vt 2.86588 1.00636
vt 2.86588 1.14127
vt 2.99079 1.14127
vt 2.99079 1.00636
vt 0.86725 1.87076
vt 0.86725 2.00567
vt 0.99216 2.00567
vt 0.99216 1.87077
vt 1.99148 1.00636
vt 1.99148 1.14127
vt 2.10952 1.14127
vt 2.10952 1.00636
vt -0.00715 1.87077
vt -0.00715 2.00567
vt 0.11089 2.00567
vt 0.11089 1.87077
vt 0.86610 2.14058
vt 0.86610 2.00567
vt 0.99216 2.14058
vt 0.99216 2.00567
vt 1.99148 3.00499
vt 1.99148 2.87008
vt 1.86541 2.87008
vt 1.86541 3.00499
vt -0.00715 2.85804
vt 0.12276 2.85804
vt 0.12276 3.00499
vt -0.00715 3.00499
vt 1.12207 2.15262
vt 0.99216 2.15262
vt 1.12207 2.00567
vt 0.99217 2.00567
vt 2.86588 1.85872
vt 2.99079 1.85872
vt 2.86588 2.00567
vt 2.99079 2.00567
vt 0.86725 1.00636
vt 0.86725 1.15331
vt 0.99216 1.15331
vt 0.99216 1.00636
vt 1.99148 1.85872
vt 2.10952 1.85872
vt 1.99148 2.00567
vt 2.10952 2.00567
vt 0.11089 1.15331
vt 0.11089 1.00636
vt -0.00715 1.00636
vt -0.00715 1.15331
vt 0.86610 3.00499
vt 0.86610 2.85804
vt 0.99216 2.85804
vt 0.99216 3.00499
vt 1.99148 2.15262
vt 1.86541 2.15262
vt 1.99148 2.00567
vt 1.86541 2.00567
# 96 texture verticies
vn 0.00000 -0.70711 -0.70711
vn -0.57735 -0.57735 -0.57735
vn -0.70711 -0.00000 -0.70711
vn 0.00000 0.00000 -1.00000
vn -0.57735 -0.57735 0.57735
vn 0.00000 -0.70711 0.70711
vn 0.00000 0.00000 1.00000
vn -0.70711 0.00000 0.70711
vn 0.70711 0.00000 -0.70711
vn 0.57735 -0.57735 -0.57735
vn 0.57735 -0.57735 0.57735
vn 0.70711 0.00000 0.70711
vn 0.00000 0.70711 -0.70711
vn -0.57735 0.57735 -0.57735
vn -0.57735 0.57735 0.57735
vn 0.00000 0.70711 0.70711
vn 0.57735 0.57735 -0.57735
vn 0.57735 0.57735 0.57735
vn 0.70711 -0.70711 0.00000
vn 1.00000 0.00000 0.00000
vn -1.00000 0.00000 0.00000
vn -0.70711 -0.70711 0.00000
vn 0.00000 1.00000 0.00000
vn -0.70711 0.70711 0.00000
vn 0.00000 -1.00000 0.00000
vn 0.70711 0.70711 0.00000
# 26 normals
f  12/5/9 11/6/10 10/7/11 9/8/12
f  16/9/13 15/10/14 14/11/15 13/12/16
f  20/13/12 19/14/17 18/15/18 17/16/9
f  17/16/9 12/5/9 9/8/12 20/13/12
f  15/10/14 22/17/14 21/18/15 14/11/15
f  22/17/14 24/19/19 23/20/20 21/18/15
f  28/21/21 27/22/12 26/23/11 25/24/22
f  27/22/12 9/8/12 10/7/11 26/23/11
f  32/25/23 31/26/16 30/27/15 29/28/24
f  31/26/16 13/12/16 14/11/15 30/27/15
f  36/29/25 35/30/17 34/31/12 33/32/21
f  35/30/17 19/14/17 20/13/12 34/31/12
f  33/32/21 34/31/12 27/22/12 28/21/21
f  29/28/24 30/27/15 38/33/15 37/34/24
f  37/34/24 38/33/15 40/35/20 39/36/26
f  38/33/15 21/18/15 23/20/20 40/35/20
f  24/37/19 42/38/27 41/39/28 23/40/20
f  13/41/16 44/42/29 43/43/30 16/44/13
f  29/45/24 46/46/31 45/47/32 32/48/23
f  47/49/33 15/50/14 16/51/13 43/52/30
f  39/53/26 49/54/34 48/55/31 37/56/24
f  37/56/24 48/55/31 46/46/31 29/45/24
f  42/57/27 24/58/19 22/59/14 50/60/33
f  50/60/33 22/59/14 15/50/14 47/49/33
f  23/40/20 41/39/28 51/61/28 40/62/20
f  40/62/20 51/61/28 49/63/34 39/64/26
f  32/65/23 45/66/32 52/67/29 31/68/16
f  31/68/16 52/67/29 44/42/29 13/41/16
f  42/38/27 54/69/27 53/70/28 41/39/28
f  19/71/17 53/70/28 54/69/27 18/72/18
f  44/42/29 56/73/29 55/74/30 43/43/30
f  56/73/29 10/75/11 11/76/10 55/74/30
f  46/46/31 58/77/31 57/78/32 45/47/32
f  58/77/31 28/79/21 25/80/22 57/78/32
f  12/81/9 59/82/33 55/83/30 11/84/10
f  59/82/33 47/49/33 43/52/30 55/83/30
f  49/54/34 61/85/34 60/86/31 48/55/31
f  61/85/34 36/87/25 33/88/21 60/86/31
f  60/86/31 33/88/21 28/79/21 58/77/31
f  62/89/33 17/90/9 18/91/18 54/92/27
f  54/92/27 42/57/27 50/60/33 62/89/33
f  17/90/9 62/89/33 59/82/33 12/81/9
f  53/70/28 19/71/17 35/93/17 63/94/28
f  51/61/28 63/94/28 61/95/34 49/63/34
f  63/94/28 35/93/17 36/96/25 61/95/34
f  45/66/32 57/97/32 64/98/29 52/67/29
f  57/97/32 25/99/22 26/100/11 64/98/29
f  64/98/29 26/100/11 10/75/11 56/73/29
