# 
# Wavefront OBJ file
# Converted by the DEEP Exploration Deep Exploration 5.7 5.7.0.4228 Release
# Right Hemisphere, LTD
# http://www.righthemisphere.com/
# 
mtllib mud_long.mtl
# object pCube1
g pCube1
v -3.35737 -121.00346 -0.00001
v 1.39293 -121.00346 -0.00001
v -3.35737 -121.00346 0.71476
v 1.39293 -121.00346 0.71476
v -3.35737 122.41944 0.71477
v 1.39293 122.41944 0.71477
v -3.35737 122.41944 0.00001
v 1.39293 122.41944 0.00001
# 8 verticies
vt -0.75000 0.00000
vt -1.25000 0.00000
vt -1.25000 -75.00000
vt -0.75000 -75.00000
vt -1.25000 -150.00000
vt -0.75000 -150.00000
vt -1.25000 -225.00000
vt -0.75000 -225.00000
vt -1.25000 -300.00000
vt -0.75000 -300.00000
vt -1.75000 0.00000
vt -1.75000 -75.00000
vt -0.25000 0.00000
vt -0.25000 -75.00000
# 14 texture verticies
vn 0.00000 -1.00000 -0.00000
vn 0.00000 -0.00000 1.00000
vn 0.00000 1.00000 0.00000
vn 0.00000 0.00000 -1.00000
vn 1.00000 0.00000 0.00000
vn -1.00000 -0.00000 0.00000
# 6 normals
usemtl lambert1
f  1/1/1 2/2/1 4/3/1 3/4/1
f  3/4/2 4/3/2 6/5/2 5/6/2
f  5/6/3 6/5/3 8/7/3 7/8/3
f  7/8/4 8/7/4 2/9/4 1/10/4
f  2/2/5 8/11/5 6/12/5 4/3/5
f  7/13/6 1/1/6 3/4/6 5/14/6
