# 
# Wavefront OBJ file
# Converted by the DEEP Exploration Deep Exploration 5.7 5.7.0.4228 Release
# Right Hemisphere, LTD
# http://www.righthemisphere.com/
# 
mtllib Piatra.mtl
# object Surface #0
g Surface__0
v -27.38571 25.05229 -25.57647
v -14.87776 25.05229 -22.30934
v -5.07638 25.05229 -12.50796
v -1.80925 25.05229 -0.00000
v -5.07638 25.05229 12.50796
v -14.87776 25.05229 22.30934
v -27.38571 25.05229 25.57647
v -19.41870 27.60942 -22.30934
v -13.36578 29.72669 -12.50796
v -11.59078 30.57725 -0.00000
v -13.91879 30.04079 12.50796
v -19.97170 27.92353 22.30934
v -24.19305 29.00748 -22.30934
v -22.45178 32.56070 -12.50796
v -22.84192 34.32431 -0.00000
v -24.95398 34.10773 12.50796
v -26.69525 30.55451 22.30934
v -27.33632 28.70050 -22.30934
v -28.78608 32.44757 -12.50796
v -31.16881 34.83017 0.00000
v -33.87244 35.66485 12.50796
v -32.42269 31.91778 22.30934
v -30.92336 28.87637 -22.30934
v -34.45605 32.32684 -12.50796
v -36.60416 34.05621 -0.00000
v -36.56956 34.03260 12.50796
v -33.03687 30.58213 22.30934
v -35.73557 27.47830 -22.30934
v -42.46876 29.49283 -12.50796
v -44.95579 30.30914 -0.00000
v -40.01618 31.60429 12.50796
v -33.28299 29.58977 22.30934
v -39.89367 25.05229 -22.30934
v -49.69505 25.05229 -12.50796
v -52.96218 25.05229 -0.00000
v -42.86632 29.32822 12.50796
v -33.06494 29.32822 22.30934
v -38.29591 18.93538 -22.30934
v -46.84526 14.14209 -12.50796
v -49.69505 12.54433 -0.00000
v -36.67860 16.32692 5.83049
v -28.12925 21.12020 15.63188
v -33.50262 14.14209 -22.30934
v -38.29591 5.59274 -12.50796
v -39.89367 2.74295 -0.00000
v -30.74615 6.13894 5.83049
v -25.95286 14.68830 15.63188
v -27.38571 12.54433 -22.30934
v -27.38571 2.74295 -12.50796
v -27.38571 -0.52418 -0.00000
v -27.38571 2.74295 12.50796
v -27.38571 12.54433 22.30934
v -21.26880 14.14209 -22.30934
v -16.47552 5.59274 -12.50796
v -14.87776 2.74295 -0.00000
v -16.47552 5.59274 12.50796
v -21.26880 14.14209 22.30934
v -16.47552 18.93538 -22.30934
v -7.92616 14.14209 -12.50796
v -5.07638 12.54433 -0.00000
v -7.92616 14.14209 12.50796
v -16.47552 18.93538 22.30934
# 62 verticies
vt 0.08333 0.16667
vt 0.00000 0.16667
vt 0.00000 0.00000
vt 0.08333 0.33333
vt 0.00000 0.33333
vt 0.08333 0.50000
vt 0.00000 0.50000
vt 0.08333 0.66667
vt 0.00000 0.66667
vt 0.08333 0.83333
vt 0.00000 0.83333
vt 0.08333 1.00000
vt 0.16667 0.16667
vt 0.08333 0.00000
vt 0.16667 0.33333
vt 0.16667 0.50000
vt 0.16667 0.66667
vt 0.16667 0.83333
vt 0.16667 1.00000
vt 0.25000 0.16667
vt 0.16667 0.00000
vt 0.25000 0.33333
vt 0.25000 0.50000
vt 0.25000 0.66667
vt 0.25000 0.83333
vt 0.25000 1.00000
vt 0.33333 0.16667
vt 0.25000 0.00000
vt 0.33333 0.33333
vt 0.33333 0.50000
vt 0.33333 0.66667
vt 0.33333 0.83333
vt 0.33333 1.00000
vt 0.41667 0.16667
vt 0.33333 0.00000
vt 0.41667 0.33333
vt 0.41667 0.50000
vt 0.41667 0.66667
vt 0.41667 0.83333
vt 0.41667 1.00000
vt 0.50000 0.16667
vt 0.41667 0.00000
vt 0.50000 0.33333
vt 0.50000 0.50000
vt 0.50000 0.66667
vt 0.50000 0.83333
vt 0.50000 1.00000
vt 0.58333 0.16667
vt 0.50000 0.00000
vt 0.58333 0.33333
vt 0.58333 0.50000
vt 0.58333 0.66667
vt 0.58333 0.83333
vt 0.58333 1.00000
vt 0.66667 0.16667
vt 0.58333 0.00000
vt 0.66667 0.33333
vt 0.66667 0.50000
vt 0.66667 0.66667
vt 0.66667 0.83333
vt 0.66667 1.00000
vt 0.75000 0.16667
vt 0.66667 0.00000
vt 0.75000 0.33333
vt 0.75000 0.50000
vt 0.75000 0.66667
vt 0.75000 0.83333
vt 0.75000 1.00000
vt 0.83333 0.16667
vt 0.75000 0.00000
vt 0.83333 0.33333
vt 0.83333 0.50000
vt 0.83333 0.66667
vt 0.83333 0.83333
vt 0.83333 1.00000
vt 0.91667 0.16667
vt 0.83333 0.00000
vt 0.91667 0.33333
vt 0.91667 0.50000
vt 0.91667 0.66667
vt 0.91667 0.83333
vt 0.91667 1.00000
vt 1.00000 0.16667
vt 0.91667 0.00000
vt 1.00000 0.33333
vt 1.00000 0.50000
vt 1.00000 0.66667
vt 1.00000 0.83333
vt 1.00000 1.00000
# 89 texture verticies
vn 0.28849 0.74139 -0.60589
vn 0.41958 0.05768 -0.90588
vn -0.00305 0.20447 -0.97887
vn 0.38241 0.88295 -0.27233
vn 0.47765 0.84657 -0.23486
vn 0.44064 0.78195 -0.44090
vn 0.41030 0.91189 -0.01053
vn 0.49120 0.86999 0.04288
vn 0.40833 0.87368 0.26450
vn 0.46190 0.81897 0.34049
vn 0.34336 0.69500 0.63172
vn 0.44076 0.78196 0.44076
vn 0.50068 -0.00534 0.86561
vn 0.18391 0.15643 0.97042
vn 0.05222 0.83187 -0.55251
vn 0.14560 0.95511 -0.25800
vn 0.20490 0.97741 -0.05190
vn 0.25848 0.94110 0.21801
vn 0.29102 0.87901 0.37769
vn 0.15376 0.49015 0.85797
vn -0.01983 0.85292 -0.52166
vn -0.05086 0.96174 -0.26921
vn -0.11714 0.98469 -0.12910
vn 0.13356 0.98496 0.10964
vn 0.18897 0.91784 0.34908
vn -0.12921 0.34722 0.92884
vn -0.13499 0.82036 -0.55569
vn -0.17582 0.94833 -0.26411
vn -0.28872 0.95400 -0.08073
vn -0.46285 0.87151 0.16202
vn -0.51051 0.84357 -0.16664
vn -0.78032 0.48719 0.39211
vn -0.87163 0.40081 0.28216
vn -0.69742 0.61018 0.37588
vn -0.39267 0.13609 0.90955
vn -0.32806 0.70621 -0.62741
vn -0.41003 0.86695 -0.28333
vn -0.48199 0.87603 -0.01619
vn -0.54275 0.79908 0.25865
vn -0.89017 0.22077 0.39856
vn -0.50174 0.71214 0.49104
vn -0.41952 0.10405 0.90176
vn -0.50036 -0.00845 -0.86578
vn -0.48315 0.79942 -0.35705
vn -0.45003 0.77133 -0.45003
vn -0.53984 0.84042 -0.04773
vn -0.57295 0.76733 0.28798
vn -0.65030 -0.63974 0.40969
vn -0.70158 -0.58493 0.40700
vn -0.71411 -0.59538 0.36820
vn -0.52940 0.66293 0.52940
vn -0.88970 -0.40749 0.20585
vn -0.45021 -0.30373 -0.83968
vn -0.74589 -0.44106 -0.49911
vn -0.88363 -0.23081 -0.40734
vn -0.87953 -0.40367 -0.25195
vn -0.93805 -0.24502 -0.24502
vn -0.52598 -0.35399 0.77333
vn -0.49995 -0.61984 0.60485
vn -0.47682 -0.35149 0.80567
vn -0.37671 -0.23261 0.89665
vn -0.68570 -0.52455 0.50463
vn -0.23511 -0.48905 -0.83997
vn -0.42098 -0.75754 -0.49891
vn -0.49314 -0.86031 -0.12919
vn -0.60936 -0.33820 0.71715
vn -0.38842 -0.38842 0.83562
vn -0.94768 -0.08454 0.30781
vn 0.03797 -0.54156 -0.83980
vn 0.01121 -0.86658 -0.49890
vn -0.00000 -1.00000 0.00000
vn -0.58182 0.56830 0.58182
vn 0.09592 -0.86264 0.49664
vn -0.95098 0.28849 -0.11144
vn -0.86121 0.50779 -0.02176
vn -0.90441 -0.30170 0.30170
vn 0.30373 -0.45021 -0.83968
vn 0.44106 -0.74589 -0.49911
vn 0.49730 -0.86758 -0.00021
vn 0.42098 -0.75754 0.49891
vn 0.23511 -0.48905 0.83997
vn 0.12837 -0.49145 0.86139
vn 0.48905 -0.23511 -0.83997
vn 0.75754 -0.42098 -0.49891
vn 0.86758 -0.49730 0.00021
vn 0.74589 -0.44106 0.49911
vn 0.45021 -0.30373 0.83968
vn 0.80023 -0.20902 -0.56208
vn 0.96412 -0.25183 -0.08394
vn 0.88363 -0.23081 0.40734
# 90 normals
usemtl Material__1
f  8/1/1 2/2/2 1/3/3
f  9/4/4 3/5/5 2/2/6
f  2/2/6 8/1/1 9/4/4
f  10/6/7 4/7/8 3/5/5
f  3/5/5 9/4/4 10/6/7
f  11/8/9 5/9/10 4/7/8
f  4/7/8 10/6/7 11/8/9
f  12/10/11 6/11/12 5/9/10
f  5/9/10 11/8/9 12/10/11
f  6/11/13 12/10/11 7/12/14
f  13/13/15 8/1/1 1/14/3
f  14/15/16 9/4/4 8/1/1
f  8/1/1 13/13/15 14/15/16
f  15/16/17 10/6/7 9/4/4
f  9/4/4 14/15/16 15/16/17
f  16/17/18 11/8/9 10/6/7
f  10/6/7 15/16/17 16/17/18
f  17/18/19 12/10/11 11/8/9
f  11/8/9 16/17/18 17/18/19
f  12/10/11 17/18/20 7/19/14
f  18/20/21 13/13/15 1/21/3
f  19/22/22 14/15/16 13/13/15
f  13/13/15 18/20/21 19/22/22
f  20/23/23 15/16/17 14/15/16
f  14/15/16 19/22/22 20/23/23
f  21/24/24 16/17/18 15/16/17
f  15/16/17 20/23/23 21/24/24
f  22/25/25 17/18/19 16/17/18
f  16/17/18 21/24/24 22/25/25
f  17/18/20 22/25/26 7/26/14
f  23/27/27 18/20/21 1/28/3
f  24/29/28 19/22/22 18/20/21
f  18/20/21 23/27/27 24/29/28
f  25/30/29 20/23/23 19/22/22
f  19/22/22 24/29/28 25/30/29
f  26/31/30 21/24/31 20/23/23
f  20/23/23 25/30/29 26/31/30
f  27/32/32 22/25/33 21/24/34
f  21/24/34 26/31/30 27/32/32
f  22/25/26 27/32/35 7/33/35
f  28/34/36 23/27/27 1/35/3
f  29/36/37 24/29/28 23/27/27
f  23/27/27 28/34/36 29/36/37
f  30/37/38 25/30/29 24/29/28
f  24/29/28 29/36/37 30/37/38
f  31/38/39 26/31/30 25/30/29
f  25/30/29 30/37/38 31/38/39
f  32/39/40 27/32/32 26/31/40
f  26/31/30 31/38/39 32/39/41
f  27/32/35 32/39/42 7/40/35
f  33/41/43 28/34/36 1/42/3
f  34/43/44 29/36/37 28/34/36
f  28/34/36 33/41/45 34/43/44
f  35/44/46 30/37/38 29/36/37
f  29/36/37 34/43/44 35/44/46
f  36/45/47 31/38/39 30/37/38
f  30/37/38 35/44/46 36/45/47
f  37/46/48 32/39/49 31/38/50
f  31/38/39 36/45/47 37/46/51
f  32/39/49 37/46/48 7/47/52
f  38/48/53 33/41/43 1/49/3
f  39/50/54 34/43/55 33/41/43
f  33/41/43 38/48/53 39/50/54
f  40/51/56 35/44/57 34/43/55
f  34/43/55 39/50/54 40/51/56
f  41/52/58 36/45/59 35/44/60
f  35/44/60 40/51/61 41/52/58
f  42/53/62 37/46/48 36/45/59
f  36/45/59 41/52/58 42/53/62
f  37/46/48 42/53/62 7/54/52
f  43/55/63 38/48/53 1/56/3
f  44/57/64 39/50/54 38/48/53
f  38/48/53 43/55/63 44/57/64
f  45/58/65 40/51/56 39/50/54
f  39/50/54 44/57/64 45/58/65
f  46/59/66 41/52/58 40/51/61
f  40/51/61 45/58/67 46/59/66
f  47/60/68 42/53/62 41/52/58
f  41/52/58 46/59/66 47/60/68
f  42/53/62 47/60/68 7/61/52
f  48/62/69 43/55/63 1/63/3
f  49/64/70 44/57/64 43/55/63
f  43/55/63 48/62/69 49/64/70
f  50/65/71 45/58/65 44/57/64
f  44/57/64 49/64/70 50/65/71
f  51/66/72 46/59/72 45/58/72
f  45/58/65 50/65/71 51/66/73
f  52/67/74 47/60/68 46/59/75
f  46/59/66 51/66/76 52/67/76
f  47/60/68 52/67/74 7/68/52
f  53/69/77 48/62/69 1/70/3
f  54/71/78 49/64/70 48/62/69
f  48/62/69 53/69/77 54/71/78
f  55/72/79 50/65/71 49/64/70
f  49/64/70 54/71/78 55/72/79
f  56/73/80 51/66/73 50/65/71
f  50/65/71 55/72/79 56/73/80
f  57/74/81 52/67/82 51/66/73
f  51/66/73 56/73/80 57/74/81
f  52/67/82 57/74/81 7/75/14
f  58/76/83 53/69/77 1/77/3
f  59/78/84 54/71/78 53/69/77
f  53/69/77 58/76/83 59/78/84
f  60/79/85 55/72/79 54/71/78
f  54/71/78 59/78/84 60/79/85
f  61/80/86 56/73/80 55/72/79
f  55/72/79 60/79/85 61/80/86
f  62/81/87 57/74/81 56/73/80
f  56/73/80 61/80/86 62/81/87
f  57/74/81 62/81/87 7/82/14
f  2/83/2 58/76/83 1/84/3
f  3/85/88 59/78/84 58/76/83
f  58/76/83 2/83/2 3/85/88
f  4/86/89 60/79/85 59/78/84
f  59/78/84 3/85/88 4/86/89
f  5/87/90 61/80/86 60/79/85
f  60/79/85 4/86/89 5/87/90
f  6/88/13 62/81/87 61/80/86
f  61/80/86 5/87/90 6/88/13
f  62/81/87 6/88/13 7/89/14
