# 
# Wavefront OBJ file
# Converted by the DEEP Exploration Deep Exploration 5.7 5.7.0.4228 Release
# Right Hemisphere, LTD
# http://www.righthemisphere.com/
# 
mtllib slime08 (copy).mtl
# object pSphere1
g pSphere1
v 4.77664 2.75359 0.04421
v 2.78797 4.74226 0.04421
v 0.07140 5.47017 0.04421
v -2.64518 4.74226 0.04421
v -4.63385 2.75359 0.04421
v -5.36176 0.03701 0.04421
v -4.63385 -2.67956 0.04421
v -2.64518 -4.66823 0.04421
v 0.07140 -5.39614 0.04421
v 2.78797 -4.66823 0.04421
v 4.77664 -2.67956 0.04421
v 5.50455 0.03701 0.04421
v 5.64077 3.25249 1.02391
v 3.28687 5.60639 1.02391
v 0.07140 6.46797 1.02391
v -3.14408 5.60639 1.02391
v -5.49798 3.25249 1.02391
v -6.35956 0.03701 1.02391
v -5.49798 -3.17847 1.02391
v -3.14408 -5.53236 1.02391
v 0.07140 -6.39394 1.02391
v 3.28687 -5.53236 1.02391
v 5.64077 -3.17847 1.02391
v 6.50235 0.03701 1.02391
v 6.23260 3.59418 2.37074
v 3.62857 6.19821 2.37074
v 0.07140 7.15135 2.37074
v -3.48578 6.19821 2.37074
v -6.08980 3.59418 2.37074
v -7.04295 0.03701 2.37074
v -6.08980 -3.52016 2.37074
v -3.48578 -6.12419 2.37074
v 0.07140 -7.07733 2.37074
v 3.62857 -6.12419 2.37074
v 6.23260 -3.52016 2.37074
v 7.18574 0.03701 2.37074
v 6.31706 3.64295 3.75779
v 3.67733 6.28268 3.75779
v 0.07140 7.24889 3.75779
v -3.53454 6.28268 3.75779
v -6.17427 3.64295 3.75779
v -7.14048 0.03701 3.75779
v -6.17427 -3.56892 3.75779
v -3.53454 -6.20865 3.75779
v 0.07140 -7.17486 3.75779
v 3.67733 -6.20865 3.75779
v 6.31706 -3.56892 3.75779
v 7.28327 0.03701 3.75779
v 6.03388 3.47945 5.18127
v 3.51384 5.99950 5.18127
v 0.07140 6.92190 5.18127
v -3.37105 5.99950 5.18127
v -5.89109 3.47945 5.18127
v -6.81349 0.03701 5.18127
v -5.89109 -3.40543 5.18127
v -3.37105 -5.92547 5.18127
v 0.07140 -6.84787 5.18127
v 3.51384 -5.92547 5.18127
v 6.03388 -3.40543 5.18127
v 6.95628 0.03701 5.18127
v 3.29536 1.89837 7.56770
v 1.93275 3.26097 7.56770
v 0.07140 3.75972 7.56770
v -1.78996 3.26097 7.56770
v -3.15257 1.89837 7.56770
v -3.65131 0.03701 7.56770
v -3.15257 -1.82434 7.56770
v -1.78996 -3.18695 7.56770
v 0.07140 -3.68570 7.56770
v 1.93275 -3.18695 7.56770
v 3.29536 -1.82434 7.56770
v 3.79411 0.03701 7.56770
v 2.08905 1.20191 8.73026
v 1.23629 2.05467 8.73026
v 0.07140 2.36680 8.73026
v -1.09350 2.05467 8.73026
v -1.94626 1.20191 8.73026
v -2.25839 0.03701 8.73026
v -1.94626 -1.12788 8.73026
v -1.09350 -1.98064 8.73026
v 0.07140 -2.29277 8.73026
v 1.23629 -1.98064 8.73026
v 2.08905 -1.12788 8.73026
v 2.40118 0.03701 8.73026
v 1.31559 0.75535 10.31266
v 0.78973 1.28121 10.31266
v 0.07140 1.47369 10.31266
v -0.64694 1.28121 10.31266
v -1.17280 0.75535 10.31266
v -1.36528 0.03701 10.31266
v -1.17280 -0.68132 10.31266
v -0.64694 -1.20718 10.31266
v 0.07140 -1.39966 10.31266
v 0.78973 -1.20718 10.31266
v 1.31559 -0.68132 10.31266
v 1.50807 0.03701 10.31266
v 0.60860 0.34716 12.09413
v 0.38155 0.57421 12.09413
v 0.07140 0.65732 12.09413
v -0.23876 0.57421 12.09413
v -0.46580 0.34716 12.09413
v -0.54891 0.03701 12.09413
v -0.46580 -0.27314 12.09413
v -0.23876 -0.50019 12.09413
v 0.07140 -0.58329 12.09413
v 0.38155 -0.50019 12.09413
v 0.60860 -0.27314 12.09413
v 0.69170 0.03701 12.09413
v 0.07140 0.03701 12.52902
v 3.82831 2.20607 0.05853
v 2.24045 3.79393 0.05853
v 0.07140 4.37513 0.05853
v -2.09766 3.79393 0.05853
v -3.68552 2.20607 0.05853
v -4.26672 0.03701 0.05853
v -3.68552 -2.13204 0.05853
v -2.09766 -3.71990 0.05853
v 0.07140 -4.30110 0.05853
v 2.24045 -3.71990 0.05853
v 3.82831 -2.13204 0.05853
v 4.40951 0.03701 0.05853
v 0.07140 0.03701 0.05853
v -2.86300 -5.04552 6.43889
v -5.01113 -2.89739 6.43889
v -5.79740 0.03701 6.43889
v -5.01113 2.97141 6.43889
v -2.86300 5.11954 6.43889
v 0.07140 5.90581 6.43889
v 3.00579 5.11954 6.43889
v 5.15392 2.97141 6.43889
v 5.94019 0.03701 6.43889
v 5.15392 -2.89739 6.43889
v 3.00579 -5.04552 6.43889
v 0.07140 -5.83179 6.43889
# 134 verticies
vt 0.81106 0.14815
vt 0.89044 0.14815
vt 0.89044 0.20172
vt 0.81106 0.20172
vt 0.96982 0.14815
vt 0.96982 0.20172
vt 0.01726 0.14815
vt 0.09664 0.14815
vt 0.09664 0.20172
vt 0.01726 0.20172
vt 0.17602 0.14815
vt 0.17602 0.20172
vt 0.25540 0.14815
vt 0.25540 0.20172
vt 0.33478 0.14815
vt 0.33478 0.20172
vt 0.41416 0.14815
vt 0.41416 0.20172
vt 0.49354 0.14815
vt 0.49354 0.20172
vt 0.57292 0.14815
vt 0.57292 0.20172
vt 0.65230 0.14815
vt 0.65230 0.20172
vt 0.73168 0.14815
vt 0.73168 0.20172
vt 0.89044 0.27537
vt 0.81106 0.27537
vt 0.96982 0.27537
vt 0.09664 0.27537
vt 0.01726 0.27537
vt 0.17602 0.27537
vt 0.25540 0.27537
vt 0.33478 0.27537
vt 0.41416 0.27537
vt 0.49354 0.27537
vt 0.57292 0.27537
vt 0.65230 0.27537
vt 0.73168 0.27537
vt 0.89044 0.35121
vt 0.81106 0.35121
vt 0.96982 0.35121
vt 0.09664 0.35121
vt 0.01726 0.35121
vt 0.17602 0.35121
vt 0.25540 0.35121
vt 0.33478 0.35121
vt 0.41416 0.35121
vt 0.49354 0.35121
vt 0.57292 0.35121
vt 0.65230 0.35121
vt 0.73168 0.35121
vt 0.89044 0.42905
vt 0.81106 0.42905
vt 0.96982 0.42905
vt 0.09664 0.42905
vt 0.01726 0.42905
vt 0.17602 0.42905
vt 0.25540 0.42905
vt 0.33478 0.42905
vt 0.41416 0.42905
vt 0.49354 0.42905
vt 0.57292 0.42905
vt 0.65230 0.42905
vt 0.73168 0.42905
vt 0.89044 0.49782
vt 0.81106 0.49782
vt 0.96982 0.49782
vt 0.09664 0.49782
vt 0.01726 0.49782
vt 0.17602 0.49782
vt 0.25540 0.49782
vt 0.33478 0.49782
vt 0.41416 0.49782
vt 0.49354 0.49782
vt 0.57292 0.49782
vt 0.65230 0.49782
vt 0.73168 0.49782
vt 0.81106 0.55954
vt 0.89044 0.55954
vt 0.89044 0.62311
vt 0.81106 0.62311
vt 0.96982 0.55954
vt 0.96982 0.62311
vt 0.01726 0.55954
vt 0.09664 0.55954
vt 0.09664 0.62311
vt 0.01726 0.62311
vt 0.17602 0.55954
vt 0.17602 0.62311
vt 0.25540 0.55954
vt 0.25540 0.62311
vt 0.33478 0.55954
vt 0.33478 0.62311
vt 0.41416 0.55954
vt 0.41416 0.62311
vt 0.49354 0.55954
vt 0.49354 0.62311
vt 0.57292 0.55954
vt 0.57292 0.62311
vt 0.65230 0.55954
vt 0.65230 0.62311
vt 0.73168 0.55954
vt 0.73168 0.62311
vt 0.89044 0.70964
vt 0.81106 0.70964
vt 0.96982 0.70964
vt 0.09664 0.70964
vt 0.01726 0.70964
vt 0.17602 0.70964
vt 0.25540 0.70964
vt 0.33478 0.70964
vt 0.41416 0.70964
vt 0.49354 0.70964
vt 0.57292 0.70964
vt 0.65230 0.70964
vt 0.73168 0.70964
vt 0.89044 0.80705
vt 0.81106 0.80705
vt 0.96982 0.80705
vt 0.09664 0.80705
vt 0.01726 0.80705
vt 0.17602 0.80705
vt 0.25540 0.80705
vt 0.33478 0.80705
vt 0.41416 0.80705
vt 0.49354 0.80705
vt 0.57292 0.80705
vt 0.65230 0.80705
vt 0.73168 0.80705
vt 0.48974 0.98701
vt 0.89044 0.14894
vt 0.81106 0.14894
vt 0.96982 0.14894
vt 0.09664 0.14894
vt 0.01726 0.14894
vt 0.17602 0.14894
vt 0.25540 0.14894
vt 0.33478 0.14894
vt 0.41416 0.14894
vt 0.49354 0.14894
vt 0.57292 0.14894
vt 0.65230 0.14894
vt 0.73168 0.14894
vt 0.49214 0.01937
# 145 texture verticies
vn 0.82660 0.47724 -0.29829
vn 0.47724 0.82660 -0.29829
vn 0.48723 0.84391 -0.22452
vn 0.84391 0.48723 -0.22452
vn -0.00000 0.95448 -0.29829
vn -0.00000 0.97447 -0.22452
vn -0.47724 0.82660 -0.29829
vn -0.48723 0.84391 -0.22452
vn -0.82660 0.47724 -0.29829
vn -0.84391 0.48723 -0.22452
vn -0.95448 0.00000 -0.29829
vn -0.97447 0.00000 -0.22452
vn -0.82660 -0.47724 -0.29829
vn -0.84391 -0.48723 -0.22452
vn -0.47724 -0.82660 -0.29829
vn -0.48723 -0.84391 -0.22452
vn 0.00000 -0.95448 -0.29829
vn 0.00000 -0.97447 -0.22452
vn 0.47724 -0.82660 -0.29829
vn 0.48723 -0.84391 -0.22452
vn 0.82660 -0.47724 -0.29829
vn 0.84391 -0.48723 -0.22452
vn 0.95448 0.00000 -0.29829
vn 0.97447 0.00000 -0.22452
vn 0.49810 0.86273 -0.08713
vn 0.86273 0.49810 -0.08713
vn 0.00000 0.99620 -0.08713
vn -0.49810 0.86273 -0.08713
vn -0.86273 0.49810 -0.08713
vn -0.99620 -0.00000 -0.08713
vn -0.86273 -0.49810 -0.08713
vn -0.49810 -0.86273 -0.08713
vn 0.00000 -0.99620 -0.08713
vn 0.49810 -0.86273 -0.08713
vn 0.86273 -0.49810 -0.08713
vn 0.99620 0.00000 -0.08713
vn 0.49985 0.86577 0.02429
vn 0.86577 0.49985 0.02429
vn 0.00000 0.99970 0.02429
vn -0.49985 0.86577 0.02429
vn -0.86577 0.49985 0.02429
vn -0.99970 -0.00000 0.02429
vn -0.86577 -0.49985 0.02429
vn -0.49985 -0.86577 0.02429
vn 0.00000 -0.99970 0.02429
vn 0.49985 -0.86577 0.02429
vn 0.86577 -0.49985 0.02429
vn 0.99970 -0.00000 0.02429
vn 0.49404 0.85571 0.15388
vn 0.85571 0.49404 0.15388
vn 0.00000 0.98809 0.15388
vn -0.49404 0.85571 0.15388
vn -0.85571 0.49404 0.15388
vn -0.98809 0.00000 0.15388
vn -0.85571 -0.49404 0.15388
vn -0.49404 -0.85571 0.15388
vn 0.00000 -0.98809 0.15388
vn 0.49404 -0.85571 0.15388
vn 0.85571 -0.49404 0.15388
vn 0.98809 -0.00000 0.15388
vn 0.46533 0.80597 0.36591
vn 0.80597 0.46533 0.36591
vn 0.00000 0.93065 0.36591
vn -0.46533 0.80597 0.36591
vn -0.80597 0.46533 0.36591
vn -0.93065 -0.00000 0.36591
vn -0.80597 -0.46533 0.36591
vn -0.46533 -0.80597 0.36591
vn 0.00000 -0.93065 0.36591
vn 0.46533 -0.80597 0.36591
vn 0.80597 -0.46533 0.36591
vn 0.93065 -0.00000 0.36591
vn 0.78508 0.45327 0.42214
vn 0.45327 0.78508 0.42214
vn 0.48342 0.83730 0.25542
vn 0.83730 0.48342 0.25542
vn 0.00000 0.90653 0.42214
vn 0.00000 0.96683 0.25542
vn -0.45327 0.78508 0.42214
vn -0.48342 0.83730 0.25542
vn -0.78508 0.45327 0.42214
vn -0.83730 0.48342 0.25542
vn -0.90653 -0.00000 0.42214
vn -0.96683 -0.00000 0.25542
vn -0.78508 -0.45327 0.42214
vn -0.83730 -0.48342 0.25542
vn -0.45327 -0.78508 0.42214
vn -0.48342 -0.83730 0.25542
vn -0.00000 -0.90653 0.42214
vn -0.00000 -0.96683 0.25542
vn 0.45327 -0.78508 0.42214
vn 0.48342 -0.83730 0.25542
vn 0.78508 -0.45327 0.42214
vn 0.83730 -0.48342 0.25542
vn 0.90653 0.00000 0.42214
vn 0.96683 0.00000 0.25542
vn 0.49397 0.85557 0.15489
vn 0.85557 0.49397 0.15489
vn 0.00000 0.98793 0.15489
vn -0.49397 0.85557 0.15489
vn -0.85557 0.49397 0.15489
vn -0.98793 -0.00000 0.15489
vn -0.85557 -0.49397 0.15489
vn -0.49397 -0.85557 0.15489
vn 0.00000 -0.98793 0.15489
vn 0.49397 -0.85557 0.15489
vn 0.85557 -0.49397 0.15489
vn 0.98793 0.00000 0.15489
vn 0.48219 0.83517 0.26454
vn 0.83517 0.48219 0.26454
vn 0.00000 0.96437 0.26454
vn -0.48219 0.83517 0.26454
vn -0.83517 0.48219 0.26454
vn -0.96437 -0.00000 0.26454
vn -0.83517 -0.48219 0.26454
vn -0.48219 -0.83517 0.26454
vn 0.00000 -0.96437 0.26454
vn 0.48219 -0.83517 0.26454
vn 0.83517 -0.48219 0.26454
vn 0.96437 0.00000 0.26454
vn -0.00000 -0.00000 1.00000
vn 0.03688 0.02129 0.99909
vn 0.02129 0.03688 0.99909
vn 0.01065 0.01845 0.99977
vn 0.01845 0.01065 0.99977
vn -0.00000 0.04258 0.99909
vn -0.00000 0.02130 0.99977
vn -0.02129 0.03688 0.99909
vn -0.01065 0.01845 0.99977
vn -0.03688 0.02129 0.99909
vn -0.01845 0.01065 0.99977
vn -0.04258 -0.00000 0.99909
vn -0.02130 0.00000 0.99977
vn -0.03688 -0.02129 0.99909
vn -0.01845 -0.01065 0.99977
vn -0.02129 -0.03688 0.99909
vn -0.01065 -0.01845 0.99977
vn 0.00000 -0.04258 0.99909
vn 0.00000 -0.02130 0.99977
vn 0.02129 -0.03688 0.99909
vn 0.01065 -0.01845 0.99977
vn 0.03688 -0.02129 0.99909
vn 0.01845 -0.01065 0.99977
vn 0.04258 -0.00000 0.99909
vn 0.02130 -0.00000 0.99977
vn -0.00000 -0.00000 1.00000
# 146 normals
usemtl lambert2
f  1/1/1 2/2/2 14/3/3 13/4/4
f  2/2/2 3/5/5 15/6/6 14/3/3
f  3/7/5 4/8/7 16/9/8 15/10/6
f  4/8/7 5/11/9 17/12/10 16/9/8
f  5/11/9 6/13/11 18/14/12 17/12/10
f  6/13/11 7/15/13 19/16/14 18/14/12
f  7/15/13 8/17/15 20/18/16 19/16/14
f  8/17/15 9/19/17 21/20/18 20/18/16
f  9/19/17 10/21/19 22/22/20 21/20/18
f  10/21/19 11/23/21 23/24/22 22/22/20
f  11/23/21 12/25/23 24/26/24 23/24/22
f  12/25/23 1/1/1 13/4/4 24/26/24
f  13/4/4 14/3/3 26/27/25 25/28/26
f  14/3/3 15/6/6 27/29/27 26/27/25
f  15/10/6 16/9/8 28/30/28 27/31/27
f  16/9/8 17/12/10 29/32/29 28/30/28
f  17/12/10 18/14/12 30/33/30 29/32/29
f  18/14/12 19/16/14 31/34/31 30/33/30
f  19/16/14 20/18/16 32/35/32 31/34/31
f  20/18/16 21/20/18 33/36/33 32/35/32
f  21/20/18 22/22/20 34/37/34 33/36/33
f  22/22/20 23/24/22 35/38/35 34/37/34
f  23/24/22 24/26/24 36/39/36 35/38/35
f  24/26/24 13/4/4 25/28/26 36/39/36
f  25/28/26 26/27/25 38/40/37 37/41/38
f  26/27/25 27/29/27 39/42/39 38/40/37
f  27/31/27 28/30/28 40/43/40 39/44/39
f  28/30/28 29/32/29 41/45/41 40/43/40
f  29/32/29 30/33/30 42/46/42 41/45/41
f  30/33/30 31/34/31 43/47/43 42/46/42
f  31/34/31 32/35/32 44/48/44 43/47/43
f  32/35/32 33/36/33 45/49/45 44/48/44
f  33/36/33 34/37/34 46/50/46 45/49/45
f  34/37/34 35/38/35 47/51/47 46/50/46
f  35/38/35 36/39/36 48/52/48 47/51/47
f  36/39/36 25/28/26 37/41/38 48/52/48
f  37/41/38 38/40/37 50/53/49 49/54/50
f  38/40/37 39/42/39 51/55/51 50/53/49
f  39/44/39 40/43/40 52/56/52 51/57/51
f  40/43/40 41/45/41 53/58/53 52/56/52
f  41/45/41 42/46/42 54/59/54 53/58/53
f  42/46/42 43/47/43 55/60/55 54/59/54
f  43/47/43 44/48/44 56/61/56 55/60/55
f  44/48/44 45/49/45 57/62/57 56/61/56
f  45/49/45 46/50/46 58/63/58 57/62/57
f  46/50/46 47/51/47 59/64/59 58/63/58
f  47/51/47 48/52/48 60/65/60 59/64/59
f  48/52/48 37/41/38 49/54/50 60/65/60
f  49/54/50 50/53/49 129/66/61 130/67/62
f  50/53/49 51/55/51 128/68/63 129/66/61
f  51/57/51 52/56/52 127/69/64 128/70/63
f  52/56/52 53/58/53 126/71/65 127/69/64
f  53/58/53 54/59/54 125/72/66 126/71/65
f  54/59/54 55/60/55 124/73/67 125/72/66
f  55/60/55 56/61/56 123/74/68 124/73/67
f  56/61/56 57/62/57 134/75/69 123/74/68
f  57/62/57 58/63/58 133/76/70 134/75/69
f  58/63/58 59/64/59 132/77/71 133/76/70
f  59/64/59 60/65/60 131/78/72 132/77/71
f  60/65/60 49/54/50 130/67/62 131/78/72
f  61/79/73 62/80/74 74/81/75 73/82/76
f  62/80/74 63/83/77 75/84/78 74/81/75
f  63/85/77 64/86/79 76/87/80 75/88/78
f  64/86/79 65/89/81 77/90/82 76/87/80
f  65/89/81 66/91/83 78/92/84 77/90/82
f  66/91/83 67/93/85 79/94/86 78/92/84
f  67/93/85 68/95/87 80/96/88 79/94/86
f  68/95/87 69/97/89 81/98/90 80/96/88
f  69/97/89 70/99/91 82/100/92 81/98/90
f  70/99/91 71/101/93 83/102/94 82/100/92
f  71/101/93 72/103/95 84/104/96 83/102/94
f  72/103/95 61/79/73 73/82/76 84/104/96
f  73/82/76 74/81/75 86/105/97 85/106/98
f  74/81/75 75/84/78 87/107/99 86/105/97
f  75/88/78 76/87/80 88/108/100 87/109/99
f  76/87/80 77/90/82 89/110/101 88/108/100
f  77/90/82 78/92/84 90/111/102 89/110/101
f  78/92/84 79/94/86 91/112/103 90/111/102
f  79/94/86 80/96/88 92/113/104 91/112/103
f  80/96/88 81/98/90 93/114/105 92/113/104
f  81/98/90 82/100/92 94/115/106 93/114/105
f  82/100/92 83/102/94 95/116/107 94/115/106
f  83/102/94 84/104/96 96/117/108 95/116/107
f  84/104/96 73/82/76 85/106/98 96/117/108
f  85/106/98 86/105/97 98/118/109 97/119/110
f  86/105/97 87/107/99 99/120/111 98/118/109
f  87/109/99 88/108/100 100/121/112 99/122/111
f  88/108/100 89/110/101 101/123/113 100/121/112
f  89/110/101 90/111/102 102/124/114 101/123/113
f  90/111/102 91/112/103 103/125/115 102/124/114
f  91/112/103 92/113/104 104/126/116 103/125/115
f  92/113/104 93/114/105 105/127/117 104/126/116
f  93/114/105 94/115/106 106/128/118 105/127/117
f  94/115/106 95/116/107 107/129/119 106/128/118
f  95/116/107 96/117/108 108/130/120 107/129/119
f  96/117/108 85/106/98 97/119/110 108/130/120
f  97/119/110 98/118/109 109/131/121
f  98/118/109 99/120/111 109/131/121
f  99/122/111 100/121/112 109/131/121
f  100/121/112 101/123/113 109/131/121
f  101/123/113 102/124/114 109/131/121
f  102/124/114 103/125/115 109/131/121
f  103/125/115 104/126/116 109/131/121
f  104/126/116 105/127/117 109/131/121
f  105/127/117 106/128/118 109/131/121
f  106/128/118 107/129/119 109/131/121
f  107/129/119 108/130/120 109/131/121
f  108/130/120 97/119/110 109/131/121
f  1/1/122 2/2/123 111/132/124 110/133/125
f  2/2/123 3/5/126 112/134/127 111/132/124
f  3/7/126 4/8/128 113/135/129 112/136/127
f  4/8/128 5/11/130 114/137/131 113/135/129
f  5/11/130 6/13/132 115/138/133 114/137/131
f  6/13/132 7/15/134 116/139/135 115/138/133
f  7/15/134 8/17/136 117/140/137 116/139/135
f  8/17/136 9/19/138 118/141/139 117/140/137
f  9/19/138 10/21/140 119/142/141 118/141/139
f  10/21/140 11/23/142 120/143/143 119/142/141
f  11/23/142 12/25/144 121/144/145 120/143/143
f  12/25/144 1/1/122 110/133/125 121/144/145
f  110/133/125 111/132/124 122/145/146
f  111/132/124 112/134/127 122/145/146
f  112/136/127 113/135/129 122/145/146
f  113/135/129 114/137/131 122/145/146
f  114/137/131 115/138/133 122/145/146
f  115/138/133 116/139/135 122/145/146
f  116/139/135 117/140/137 122/145/146
f  117/140/137 118/141/139 122/145/146
f  118/141/139 119/142/141 122/145/146
f  119/142/141 120/143/143 122/145/146
f  120/143/143 121/144/145 122/145/146
f  121/144/145 110/133/125 122/145/146
f  124/73/67 123/74/68 68/95/87 67/93/85
f  125/72/66 124/73/67 67/93/85 66/91/83
f  126/71/65 125/72/66 66/91/83 65/89/81
f  127/69/64 126/71/65 65/89/81 64/86/79
f  128/70/63 127/69/64 64/86/79 63/85/77
f  129/66/61 128/68/63 63/83/77 62/80/74
f  130/67/62 129/66/61 62/80/74 61/79/73
f  131/78/72 130/67/62 61/79/73 72/103/95
f  132/77/71 131/78/72 72/103/95 71/101/93
f  133/76/70 132/77/71 71/101/93 70/99/91
f  134/75/69 133/76/70 70/99/91 69/97/89
f  123/74/68 134/75/69 69/97/89 68/95/87
